<?xml version="1.0" encoding="UTF-8"?>
<svg width="1000px" height="317px" viewBox="0 0 1000 317" version="1.1" xmlns="http://www.w3.org/2000/svg" xmlns:xlink="http://www.w3.org/1999/xlink">
    <title>Group 13</title>
    <defs>
        <polygon id="path-1" points="0 0 234.960092 0 234.960092 247.144636 0 247.144636"></polygon>
        <polygon id="path-3" points="0 0 210.604021 0 210.604021 237.669143 0 237.669143"></polygon>
    </defs>
    <g id="Page-1" stroke="none" stroke-width="1" fill="none" fill-rule="evenodd">
        <g id="Group-13">
            <path d="M367.041514,312.014273 L273.248168,312.014273 L273.248168,99.6800392 L276.344458,99.6800392 C287.299435,110.251031 301.995016,115.535713 320.434457,115.535713 C338.480149,115.535713 352.985365,110.251031 363.943596,99.6800392 L367.041514,99.6800392 L367.041514,312.014273 Z M320.434457,97.0767475 C304.704067,97.0767475 291.97397,92.407093 282.240913,83.0547676 C272.50623,73.7105774 267.639701,62.2658563 267.639701,48.7303665 C267.639701,35.1932497 272.572939,23.6899545 282.431279,14.2123456 C292.297755,4.73636384 304.961142,0 320.434457,0 C335.777607,0 348.309203,4.73636384 358.048768,14.2123456 C367.783452,23.6899545 372.64998,35.1932497 372.64998,48.7303665 C372.64998,62.3976479 367.842026,73.8716561 358.240761,83.1507639 C348.637868,92.43638 336.034682,97.0767475 320.434457,97.0767475 L320.434457,97.0767475 Z" id="Fill-1" fill="#EE2554"></path>
            <path d="M482.682497,316.851351 C458.574389,316.851351 439.819299,309.467765 426.407466,294.705474 C413.00214,279.948064 406.300291,260.379446 406.300291,236.014263 L406.300291,130.232759 L380.967009,130.232759 L380.967009,77.2460103 C397.593908,77.2460103 409.809854,74.0537238 417.613221,67.6740321 C425.408452,61.2943404 429.31339,50.3051953 429.31339,34.7000886 L499.70477,34.7000886 L499.70477,74.3465941 L540.506487,74.3465941 L540.506487,137.772542 L499.70477,131.392851 L499.70477,207.003831 C499.70477,215.775297 501.182138,222.543855 504.146637,227.314387 C507.112762,232.086546 512.272161,234.465304 519.621579,234.465304 C525.934561,234.465304 531.285953,231.118447 535.669245,224.408463 L540.506487,224.408463 L540.506487,296.929661 C526.066353,310.208076 506.790605,316.851351 482.682497,316.851351" id="Fill-3" fill="#EE2554"></path>
            <g id="Group-7" transform="translate(548.433835, 69.706715)">
                <mask id="mask-2" fill="white">
                    <use xlink:href="#path-1"></use>
                </mask>
                <g id="Clip-6"></g>
                <path d="M88.376872,102.493221 L155.287977,99.0080645 C153.351779,93.0823218 149.643715,88.4061591 144.16704,84.9925928 C138.683857,81.5725184 132.011295,79.8624811 124.149354,79.8624811 C116.419205,79.8624811 109.326862,81.7693923 102.882088,85.5718252 C96.4308057,89.3758852 91.6000726,95.0136388 88.376872,102.493221 M134.014203,247.145125 C114.159222,247.145125 95.7913722,243.951211 78.9008902,237.571519 C62.0087812,231.186946 47.863145,222.457784 36.4542191,211.366134 C25.040412,200.280993 16.1143756,187.126234 9.66797455,171.916503 C3.22320054,156.705144 0,140.460604 0,123.181255 C0,106.295654 2.96612548,90.3081891 8.89674938,75.2221137 C14.8224921,60.1376653 23.0732997,47.0561245 33.6507993,35.9644748 C44.2152825,24.8793334 57.2073351,16.1143756 72.6155678,9.66797455 C88.0189194,3.22320054 104.748323,0 122.798897,0 C138.008628,0 152.352766,2.22418735 165.823173,6.66768087 C179.295208,11.1160556 191.192251,17.4713414 201.506167,25.7156408 C211.820083,33.9664485 219.976522,44.543948 225.967347,57.4351231 C231.96468,70.3262982 234.960092,84.6997225 234.960092,100.555396 C234.960092,109.19507 233.925284,119.186829 231.868683,130.529046 L85.2789549,123.957361 C86.6961218,136.980328 92.6576598,146.619016 103.16845,152.866916 C113.674359,159.121324 126.858405,162.248528 142.714078,162.248528 C171.592718,162.248528 196.926001,154.445161 218.713925,138.846563 L223.940033,138.846563 L223.940033,226.450583 C214.008475,232.512998 201.18401,237.470642 185.45362,241.338157 C169.721602,245.207299 152.580554,247.145125 134.014203,247.145125" id="Fill-5" fill="#EE2554" mask="url(#mask-2)"></path>
            </g>
            <path d="M116.801563,142.990515 L93.9739492,142.990515 L93.9739492,102.182291 L116.801563,102.182291 C129.041915,102.182291 138.075338,103.705216 143.869289,106.726662 C149.673002,109.759497 152.575672,114.956318 152.575672,122.304108 C152.575672,129.651899 149.60792,134.934954 143.683804,138.153274 C137.748299,141.381355 128.791349,142.990515 116.801563,142.990515 M234.278355,174.895482 C218.113541,164.090194 193.806932,158.969845 161.358528,159.557213 C198.525398,156.687084 231.89797,140.099234 233.712139,103.259403 C233.734918,103.085307 233.734918,102.922602 233.734918,102.748507 C233.75607,102.421468 233.767459,102.096057 233.767459,101.759256 C233.788611,101.194667 233.8,100.628451 233.8,100.063862 C233.8,90.268977 231.963053,81.5625933 228.289157,73.9528463 C224.613635,66.3430992 219.67877,60.1261132 213.494325,55.2888718 C207.308253,50.4516304 199.830298,46.4620859 191.057205,43.3088488 C182.284112,40.1458494 173.143304,37.9281703 163.598986,36.6346597 C154.054667,35.3525386 143.739124,34.7000886 132.650729,34.7000886 L2.31218751e-14,34.7000886 L2.31218751e-14,130.98934 C23.9144884,131.456306 43.1332893,150.980994 43.1332893,174.993105 C43.1332893,175.961204 43.1007482,176.916287 43.0454283,177.872997 C48.5904396,175.341296 54.7537327,173.938772 61.2424372,173.938772 C74.3744168,173.938772 86.1689553,179.688793 94.2342784,188.819838 L133.041222,188.819838 C156.641689,188.819838 168.436227,195.853607 168.436227,209.908128 C168.436227,217.257546 165.33831,222.887164 159.152238,226.823016 C152.956404,230.758868 142.325211,232.72598 127.247271,232.72598 L102.712874,232.72598 C98.908814,243.422255 91.0826683,252.20511 81.0486059,257.271767 C101.844025,260.771567 117.681801,278.870952 117.681801,300.665385 C117.681801,304.589847 117.170905,308.393907 116.204433,312.01411 L122.019536,312.01411 C130.911404,312.01411 139.09713,311.818863 146.575085,311.426742 C154.054667,311.036248 162.761051,310.177162 172.686101,308.818569 C182.61115,307.459976 191.481867,305.65557 199.275471,303.40535 C207.080465,301.155129 215.004234,297.927048 223.059795,293.740629 C231.113729,289.546075 237.822086,284.588432 243.179986,278.838411 C248.518361,273.109542 252.909789,265.956999 256.323355,257.379152 C259.736921,248.802933 261.453467,239.172381 261.453467,228.464717 C261.453467,204.87564 252.387503,187.015432 234.278355,174.895482" id="Fill-8" fill="#EE2554"></path>
            <g id="Group-12" transform="translate(789.395979, 74.346594)">
                <mask id="mask-4" fill="white">
                    <use xlink:href="#path-3"></use>
                </mask>
                <g id="Clip-11"></g>
                <path d="M210.604671,148.133806 C199.252693,148.135433 188.688209,148.529181 178.89007,149.297152 C169.091931,150.065123 161.122604,150.820078 155.00975,151.50995 C148.882252,152.235617 141.589781,153.734137 133.153489,156.054321 C124.699299,158.372878 118.902094,160.032476 115.740722,160.994067 C112.577722,161.955658 106.051596,164.257944 96.1053943,167.852114 C86.1949882,171.478824 79.6054061,173.851074 76.3919679,175.01442 L76.3903408,171.916503 L205.570556,82.7716596 L205.570556,47.8956861 C195.380296,52.0023788 183.543454,51.8754683 172.970836,46.5191956 C170.819866,45.4339484 168.82184,44.1892495 166.978384,42.7867261 C155.208251,53.2796187 137.761316,56.097682 122.852589,48.5578984 C108.832237,41.4655556 100.877553,27.1458242 101.18344,12.4290908 C92.1890673,14.7883239 82.3144565,13.995947 73.3656413,9.46621944 C68.5999904,7.04841228 64.5356012,3.80731411 61.2554537,0 L7.53327536,0 L7.53490241,89.5353368 C29.4611268,89.5353368 48.6701654,88.3719909 65.1636454,86.048553 C81.6733959,83.7413857 94.2424136,81.1494834 102.87558,78.3232849 C111.523389,75.4759346 122.349829,71.2927703 135.372795,65.7542672 L135.371168,69.0327876 L0,160.126845 L0.00325411462,237.669143 L210.604671,237.669143 L210.604671,148.133806 Z" id="Fill-10" fill="#EE2554" mask="url(#mask-4)"></path>
            </g>
        </g>
    </g>
</svg>