<?xml version="1.0" encoding="UTF-8"?>
<svg id="Layer_1" data-name="Layer 1" xmlns="http://www.w3.org/2000/svg" viewBox="0 0 729.95 907.98">
  <defs>
    <style>
      .cls-1 {
        fill: #ee2554;
      }

      .cls-1, .cls-2, .cls-3 {
        stroke-width: 0px;
      }

      .cls-2 {
        fill: #fff6ef;
      }

      .cls-3 {
        fill: #c42751;
      }
    </style>
  </defs>
  <path class="cls-3" d="M251.97,907.98c-42.38,0-80.93-10.59-111.46-30.64-33.75-22.15-55.24-54.09-60.51-89.92-1.58-10.75-1.79-21.73-.62-32.88-8.33-6.58-15.87-13.81-22.49-21.6-20.69-24.37-31.62-52.83-31.62-82.28,0-16.61,3.42-33.61,10.07-50.44-9.22-18.19-14.07-38.41-14.07-59.65,0-45.92,20.02-129.22,154.08-171.17,4.63-1.45,9.25-2.8,13.84-4.07-9.52-18.44-16.89-37.79-21.96-57.84-12.58-49.75-10.45-102.26,6-147.84,23.32-64.64,71.53-104.79,125.82-104.79,32.76,0,93.71,15.3,133.85,117.76,32.01,81.71,90.99,127.09,148.02,170.98,31.21,24.01,60.68,46.7,85.64,74.65,31.18,34.92,49.48,72.24,55.91,114.04,11.12,56.27,9.87,108.18-3.71,154.3-13.18,44.79-38.16,83.32-72.27,111.51-63.92,56.01-143.14,85.62-229.13,85.62,0,0,0,0,0,0-14.65,0-29.43-.86-44.15-2.56-25.17,11.5-52.85,19.64-81.19,23.81-13.54,1.99-27,3-40.02,3Z"/>
  <path class="cls-1" d="M230.71,853.11c-42.38,0-80.93-10.59-111.46-30.64-33.75-22.15-55.24-54.09-60.51-89.92-1.58-10.75-1.79-21.73-.62-32.88-8.33-6.58-15.87-13.81-22.49-21.6-20.69-24.37-31.62-52.83-31.62-82.28,0-16.61,3.42-33.61,10.07-50.44-9.22-18.19-14.07-38.41-14.07-59.65,0-45.92,20.02-129.22,154.08-171.17,4.63-1.45,9.25-2.8,13.84-4.07-9.52-18.44-16.89-37.79-21.96-57.84-12.58-49.75-10.45-102.26,6-147.84C175.28,40.15,223.49,0,277.78,0c32.76,0,93.71,15.3,133.85,117.76,32.01,81.71,90.99,127.09,148.02,170.98,31.21,24.01,60.68,46.7,85.64,74.65,31.18,34.92,49.48,72.24,55.91,114.04,11.12,56.27,9.87,108.18-3.71,154.3-13.18,44.79-38.16,83.32-72.27,111.51-63.92,56.01-143.14,85.62-229.13,85.62,0,0,0,0,0,0-14.65,0-29.43-.86-44.15-2.56-25.17,11.5-52.85,19.64-81.19,23.81-13.54,1.99-27,3-40.02,3Z"/>
  <path class="cls-2" d="M639.74,488.16c-19.82-136.36-211.34-156.62-286.18-347.65-83.44-213.01-256.18,60.45-70.52,214.45,0,0-220.68,7.35-220.68,130.75,0,22.92,9.8,40.93,25.76,54.33-10.66,14.34-21.76,34.4-21.76,55.76,0,28.62,23.12,58.51,65.07,74.02-7.49,15.17-13.82,34.55-11.01,53.67,5.98,40.65,59.48,76.96,141.22,64.93,29.34-4.32,56.79-13.77,79.69-26.6,57.29,9.81,156.06,10.99,243.48-66.09,4.62-4.07,6.93-9.72,6.93-15.39,0-5.35-2.06-10.72-6.18-14.79-7.76-7.65-20.09-7.97-28.27-.77-44.7,39.37-97.86,59.64-158.29,60.29-4.24.05-8.39,0-12.44-.15,30.12-37.57,28.08-84.57-34.11-122.74,8.27-24.2,2.04-51.94-25.37-80.13,12.11-13.4,19.32-29.45,19.32-47.98s-7.59-35.38-21.37-47.81c-3.45-3.11-7.23-5.91-11.33-8.39-9.2-5.56-21.17-2.76-27.19,6.15l-.46.68c-6.54,9.69-3.43,22.7,6.53,28.82,7.98,4.9,12.4,11.78,12.4,20.55,0,12.9-9.46,24.67-28.13,35-22.27,12.32-54.35,19.68-85.82,19.68-27.13,0-52.05-5.44-68.37-14.93-16.73-9.73-18.88-20.14-18.88-28.11,0-15.95,6.33-28.96,19.91-40.94,13.72-12.11,33.93-22.46,60.08-30.77,49.18-15.64,100.19-17.63,100.7-17.65h.15c37.75-1.76,53.75-48.91,24.86-73.27h0c-32.24-26.75-53.35-58.77-62.72-95.17-7.64-29.69-6.77-60.54,2.47-86.89,9.15-26.11,23.06-37.13,28.48-37.23h.06c5.57,0,21.86,12.59,37.23,51.83,42.51,108.54,119.5,167.78,181.36,215.38,29.99,23.08,58.32,44.88,77.14,68.12,14.28,17.64,22.39,35.16,25.28,55.14,1.46,10.12,10.23,17.58,20.46,17.58,12.62,0,22.32-11.19,20.5-23.68ZM328.95,636.42c23.67,14.16,36.6,29.57,34.95,42.81-1.44,11.54-12.3,25.63-29.05,37.71-21.17,15.26-49.32,26.09-79.23,30.49-28.94,4.26-55.18,1.25-73.88-8.48-13.7-7.12-19.49-15.78-20.33-21.5-1.68-11.41,5.11-26.72,11.96-38.07,7.41.8,15.16,1.22,23.26,1.22,53.35,0,103.09-17.32,132.33-44.17ZM125,560.05c50.51,17.34,120.74,11.94,168.47-12.9,15.84,14.93,23.28,29.22,20.2,40.32-3.11,11.21-15.9,23.57-34.23,33.08-23.17,12.01-52.59,18.63-82.82,18.63s-54.77-6.8-71.86-19.15c-12.52-9.04-16.98-18.45-16.98-24.23,0-11.47,8.84-25.52,17.22-35.74Z"/>
</svg>