<?xml version="1.0" encoding="UTF-8"?>
<svg id="Layer_1" data-name="Layer 1" xmlns="http://www.w3.org/2000/svg" viewBox="0 0 871.96 825.09">
  <defs>
    <style>
      .cls-1 {
        fill: #ee2554;
      }

      .cls-1, .cls-2, .cls-3 {
        stroke-width: 0px;
      }

      .cls-2 {
        fill: #fff6ef;
      }

      .cls-3 {
        fill: #c42751;
      }
    </style>
  </defs>
  <path class="cls-3" d="M834.1,288.64c-15.14-45.68-38.97-84.99-70.82-116.84-34.27-34.27-75.29-59.62-121.91-75.33-44.07-14.85-91.13-20.42-139.88-16.55-75.16,5.97-148.34,33.99-211.56,80.25l-26.48-47.67c-10.78-19.4-28.47-33.44-49.8-39.53-7.44-2.12-15.13-3.2-22.84-3.2-13.99,0-27.87,3.59-40.15,10.37l-.97.54-.38.23c-29.36,16.95-45.66,50.62-40.63,84.22.24,1.58.53,3.14.85,4.69-11.05,1.7-21.69,5.62-31.29,11.6-18.83,11.74-31.97,30.11-36.98,51.73l-.14.6-.07.32c-2.19,9.94-2.54,20.08-1.03,30.13,5.07,33.94,29.95,60.89,63.39,68.65l40.08,9.3c-17.76,40.95-28.79,84.17-32.27,128.06-3.87,48.74,1.7,95.8,16.55,139.87,15.71,46.62,41.05,87.63,75.33,121.9,74.83,74.83,182.54,106.79,295.52,87.69,17.11-2.87,32.64-10.88,44.91-23.15,17.35-17.35,26.06-41.41,24.07-65.63,70.17,2.92,135.59-22.73,186.62-73.76,58.05-58.05,93.59-144.56,97.5-237.35,1.94-45.92-3.99-90.05-17.62-131.15Z"/>
  <path class="cls-1" d="M812.82,233.76c-15.14-45.68-38.97-84.99-70.82-116.84-34.27-34.27-75.29-59.62-121.91-75.33-44.07-14.85-91.13-20.42-139.88-16.55-75.16,5.97-148.34,33.99-211.56,80.25l-26.48-47.67c-10.78-19.4-28.47-33.44-49.8-39.53-7.44-2.12-15.13-3.2-22.84-3.2-13.99,0-27.87,3.59-40.15,10.37l-.97.54-.38.23c-29.36,16.95-45.66,50.62-40.63,84.22.24,1.58.53,3.14.85,4.69-11.05,1.7-21.69,5.62-31.29,11.6-18.83,11.74-31.97,30.11-36.98,51.73l-.14.6-.07.32c-2.19,9.94-2.54,20.08-1.03,30.13,5.07,33.94,29.95,60.89,63.39,68.65l40.08,9.3c-17.76,40.95-28.79,84.17-32.27,128.06-3.87,48.74,1.7,95.8,16.55,139.87,15.71,46.62,41.05,87.63,75.33,121.9,74.83,74.83,182.54,106.79,295.52,87.69,17.11-2.87,32.64-10.88,44.91-23.15,17.35-17.35,26.06-41.41,24.07-65.63,70.17,2.92,135.59-22.73,186.62-73.76,58.05-58.05,93.59-144.56,97.5-237.35,1.94-45.92-3.99-90.05-17.62-131.15Z"/>
  <g>
    <path class="cls-2" d="M697.9,161.02c-27.42-27.42-60.3-47.71-97.73-60.33-36.04-12.14-74.74-16.68-115.03-13.48-82.5,6.55-162.56,44.77-225.42,107.64-62.86,62.86-101.08,142.91-107.63,225.41-3.2,40.29,1.34,78.99,13.48,115.03,12.61,37.43,32.91,70.31,60.33,97.72,60.38,60.38,148.26,86,241.09,70.29,4.25-.71,8.1-2.7,11.15-5.75,4.8-4.8,6.96-11.65,5.77-18.34-1.99-11.15-12.71-18.68-23.9-16.79-79.43,13.43-154.08-7.96-204.81-58.69-95.33-95.33-80.16-265.61,33.82-379.59,113.98-113.98,284.27-129.16,379.6-33.83,33.11,33.11,53.58,81.9,57.64,137.36,3.89,53.2-7.71,109.25-31.85,153.78-9.86,18.18-21.59,34.13-34.86,47.4-10.9,10.9-22.78,19.91-35.3,26.77-27.33,14.95-58.02,20-91.21,15.01-6.41-.97-13,1.2-17.61,5.82-2.85,2.85-4.79,6.44-5.63,10.39-1.17,5.56.01,11.43,3.25,16.1,3.23,4.66,8.3,7.82,13.91,8.66,61.71,9.25,117.69-9.23,161.89-53.44,23.36-23.36,42.94-53.92,56.64-88.4,13.26-33.38,21.1-70.55,22.65-107.48,3.37-79.91-22.23-153.26-70.23-201.26Z"/>
    <path class="cls-2" d="M480.04,207.87c-10.69.26-19.34,8.5-20.14,19.15-.05.68-.07,1.38-.05,2.07l5.05,204.13-100.75,87.13c-.38.33-.75.68-1.11,1.03-7.63,7.63-8.08,20.01-1.01,28.18,3.62,4.18,8.65,6.71,14.17,7.11,5.52.4,10.86-1.37,15.04-4.99l107.2-92.71c.38-.33.75-.68,1.11-1.03.04-.04.07-.07.1-.11,3.86-3.45,6.43-8.33,6.84-13.88.05-.68.07-1.38.05-2.07l-5.29-213.81c-.28-11.42-9.8-20.47-21.22-20.19Z"/>
    <path class="cls-2" d="M184.77,216.52c.59-2.56.7-5.16.31-7.74-1.26-8.46-7.47-15.18-15.8-17.11l-63.7-14.78c-5.39-1.25-10.94-.33-15.64,2.6-4.7,2.93-7.97,7.51-9.22,12.89,0,.04-.02.07-.02.11-.57,2.52-.67,5.09-.29,7.63,1.26,8.46,7.47,15.18,15.8,17.11l63.7,14.78c11.12,2.58,22.27-4.37,24.85-15.49Z"/>
    <path class="cls-2" d="M151.45,108.04l31.76,57.16c5.54,9.98,18.18,13.59,28.15,8.05,7.51-4.17,11.7-12.67,10.43-21.17h0c-.37-2.46-1.17-4.81-2.38-7l-31.76-57.16c-2.69-4.84-7.1-8.33-12.41-9.85-5.3-1.51-10.88-.88-15.7,1.79-.01,0-.03.02-.05.03-7.5,4.17-11.69,12.68-10.42,21.16.37,2.46,1.17,4.81,2.38,7Z"/>
  </g>
</svg>