<?xml version="1.0" encoding="UTF-8"?>
<svg id="Layer_1" data-name="Layer 1" xmlns="http://www.w3.org/2000/svg" viewBox="0 0 804.19 794.41">
  <defs>
    <style>
      .cls-1 {
        fill: #ee2554;
      }

      .cls-1, .cls-2, .cls-3 {
        stroke-width: 0px;
      }

      .cls-2 {
        fill: #fff6ef;
      }

      .cls-3 {
        fill: #c42751;
      }
    </style>
  </defs>
  <path class="cls-3" d="M741.09,482.26c-17.42,17.37-38.53,33.77-63.2,49.16l6.09,35.53,10.15,59.15c7.18,41.92-4.31,84.48-31.52,116.76-27.62,32.76-67.79,51.54-110.23,51.55h-.02c-23.36,0-45.88-5.62-66.94-16.69l-74.45-39.14c-.31-.16-.64-.24-.98-.24s-.67.08-.98.24l-74.46,39.15c-20.77,10.91-43.91,16.68-66.95,16.68-42.44.01-82.63-18.78-110.25-51.54-27.22-32.28-38.7-74.85-31.51-116.78l14.22-82.92c.12-.69-.11-1.38-.6-1.86l-60.23-58.71c-39.49-38.5-53.44-95-36.4-147.45,17.05-52.45,61.54-89.96,116.11-97.89l83.26-12.1c.68-.1,1.27-.53,1.58-1.15l37.21-75.41c24.41-49.46,73.84-80.18,128.99-80.18s104.58,30.72,128.99,80.18l37.21,75.41c.3.62.89,1.05,1.58,1.15l83.26,12.1c54.58,7.93,99.07,45.45,116.11,97.9,16.99,52.3,3.18,108.61-36.04,147.1Z"/>
  <path class="cls-1" d="M719.81,427.39c-17.42,17.37-38.52,33.77-63.2,49.16l6.09,35.53,10.15,59.15c7.18,41.92-4.3,84.48-31.52,116.76-27.61,32.76-67.79,51.54-110.23,51.55h-.02c-23.36,0-45.88-5.62-66.94-16.69l-74.45-39.14c-.31-.16-.64-.24-.98-.24s-.67.08-.98.24l-74.46,39.15c-20.77,10.91-43.91,16.68-66.94,16.68-42.45,0-82.64-18.78-110.25-51.54-27.22-32.29-38.71-74.85-31.51-116.78l14.21-82.92c.12-.69-.1-1.38-.6-1.86l-60.23-58.71c-39.49-38.5-53.43-95-36.39-147.45s61.53-89.96,116.11-97.89l83.25-12.1c.69-.1,1.27-.53,1.58-1.16l37.21-75.4c24.41-49.46,73.84-80.18,128.99-80.18s104.58,30.72,128.99,80.18l37.21,75.4c.31.62.9,1.05,1.58,1.15l83.26,12.1c54.58,7.94,99.08,45.46,116.12,97.91,16.98,52.3,3.17,108.61-36.05,147.1Z"/>
  <path class="cls-2" d="M246.32,677.18c-24.02,0-46.83-10.7-62.57-29.37-15.57-18.47-21.87-41.92-17.73-66.04l14.22-82.93c3.59-20.92-3.34-42.25-18.54-57.06l-60.22-58.7c-22.37-21.81-30.27-53.81-20.62-83.52,9.65-29.71,34.85-50.96,65.77-55.45l83.25-12.1c21-3.05,39.14-16.23,48.54-35.27l37.21-75.4c13.83-28.02,41.82-45.42,73.07-45.42s59.24,17.4,73.07,45.42l37.21,75.4c9.39,19.04,27.54,32.22,48.55,35.27l83.25,12.1c30.92,4.5,56.12,25.75,65.77,55.46,9.65,29.69,1.76,61.67-20.58,83.48-38.55,38.53-100.96,72.31-185.5,100.41-2.11.7-4.3,1.06-6.52,1.06-8.64,0-16.45-5.46-19.44-13.59-.84-2.29-1.27-4.69-1.27-7.13,0-8.93,5.69-16.83,14.16-19.64,77.35-25.74,135.9-57.02,169.32-90.43l.23-.23c11.23-10.94,15.02-26.29,10.2-41.13-4.82-14.83-16.91-25.02-32.34-27.26l-83.25-12.1c-34.49-5.01-64.3-26.66-79.73-57.92l-37.21-75.41c-6.9-13.98-20.33-22.33-35.92-22.33s-29.02,8.35-35.93,22.33l-37.21,75.4c-15.43,31.26-45.23,52.92-79.72,57.93l-83.25,12.1c-15.43,2.24-27.52,12.43-32.33,27.26-4.82,14.84-1.03,30.19,10.14,41.06l60.22,58.7c24.95,24.33,36.34,59.37,30.46,93.72l-14.23,82.93c-2.03,11.88,1.02,23.36,8.58,32.34,7.74,9.17,19.29,14.65,30.9,14.65,6.36,0,12.64-1.6,18.65-4.76l74.46-39.15c15.15-7.95,32.19-12.16,49.28-12.16s34.14,4.21,49.27,12.17l74.46,39.14c6.01,3.16,12.28,4.76,18.65,4.76,11.62,0,23.16-5.47,30.89-14.65,7.57-8.98,10.62-20.47,8.58-32.35l-10.14-59.12c-1.93-11.25,5.66-21.98,16.92-23.91,1.17-.2,2.36-.3,3.53-.3,10.1,0,18.67,7.24,20.38,17.21l10.14,59.13c4.13,24.11-2.16,47.56-17.73,66.03-15.74,18.67-38.54,29.38-62.56,29.38-13.15,0-25.91-3.2-37.93-9.52l-74.45-39.14c-9.22-4.85-19.59-7.41-30-7.41s-20.79,2.56-30,7.41l-74.46,39.15c-12.02,6.32-24.78,9.52-37.93,9.52Z"/>
</svg>