<svg width="11" height="20" viewBox="0 0 11 20" fill="none" xmlns="http://www.w3.org/2000/svg">
<path d="M7.57831 9.79675L0.454565 2.67275C0.147898 2.36625 -0.00360168 1.99742 6.4984e-05 1.56625C0.00373165 1.13508 0.158815 0.76625 0.465315 0.45975C0.771815 0.15325 1.14298 0 1.57881 0C2.01482 0 2.38607 0.15325 2.69257 0.45975L10.1556 7.9195C10.4216 8.1855 10.6186 8.48117 10.7468 8.8065C10.8751 9.13183 10.9393 9.46192 10.9393 9.79675C10.9393 10.1316 10.8751 10.4617 10.7468 10.787C10.6186 11.1123 10.4216 11.408 10.1556 11.674L2.68157 19.1477C2.37507 19.4544 2.00807 19.6036 1.58057 19.5953C1.15307 19.5869 0.786065 19.4294 0.479565 19.1227C0.172898 18.8162 0.019565 18.4451 0.019565 18.0093C0.019565 17.5734 0.172898 17.2023 0.479565 16.8958L7.57831 9.79675Z" fill="#262E49"/>
</svg>
