<?xml version="1.0" encoding="UTF-8"?>
<svg id="Layer_1" data-name="Layer 1" xmlns="http://www.w3.org/2000/svg" viewBox="0 0 1026.47 1002.78">
  <defs>
    <style>
      .cls-1 {
        fill: #272e49;
      }

      .cls-2 {
        fill: #ddaa2a;
      }

      .cls-3 {
        fill: #ffd958;
      }
    </style>
  </defs>
  <path class="cls-2" d="M852.81,228.14c-26.82-43.63-78.84-67.66-146.46-67.66-32.15,0-65.73,8.24-104.62,17.79,0,0-.68.16-.92.22-25.15,6.18-51.04,9.31-76.94,9.31s-51.79-3.13-76.94-9.31c-.23-.06-.93-.22-.93-.22-38.88-9.54-72.46-17.79-104.62-17.79-67.62,0-119.63,24.03-146.46,67.67-24.19,39.36-24.06,87.71.35,136.21.24.48.48.96.74,1.44.84,1.64,1.74,3.34,2.69,5.08.42.78.85,1.55,1.3,2.32,32,54.48,82.49,110.65,138.49,154.1,21.58,16.74,43.34,31.11,64.66,42.71.62.34,1.24.66,1.87.98,30.38,16.37,35.76,26.85,35.76,67.38,0,35.6-9.2,55.22-14.37,58.28-28.71,13.06-58.28,31.33-87.91,54.32-.05.04-.74.57-.99.77-.83.65-1.64,1.32-2.5,2.04-.21.17-.41.35-.62.52-25.95,22.28-35.09,57.24-23.29,89.08,11.92,32.18,42.63,53.79,76.43,53.79h.01c14.43,0,28.77-3.97,41.5-11.48l40.74-24.06c.33-.19.66-.39.98-.59,8.54-5.26,16.77-9.71,24.48-13.23,1.05-.43,2.09-.9,3.12-1.39,16.05-6.94,24.01-7.3,25.47-7.3,6.42,0,24.58,4.52,52.18,21.36.62.39,1.24.78,1.88,1.16l40.8,24.1c12.72,7.5,27.06,11.47,41.49,11.46,33.79,0,64.49-21.62,76.42-53.78,11.8-31.82,2.67-66.78-23.25-89.07-1.1-.94-2.24-1.88-3.41-2.79-.19-.15-.7-.54-.75-.58-36.22-28.09-71.94-48.9-106-61.93,2.91-19.22,3.74-36.85,3.74-50.68s-.54-30.86-3.25-49.34c.48-.18.96-.36,1.43-.55,33.72-13.18,68.74-33.75,104.1-61.17,56.05-43.49,106.53-99.66,138.5-154.12.18-.3.35-.61.53-.91.16-.27.31-.54.46-.82,1.06-1.91,2.06-3.8,3-5.62.26-.49.51-.98.75-1.47,24.41-48.5,24.54-96.85.34-136.2Z"/>
  <path class="cls-3" d="M831.54,173.26c-26.82-43.63-78.84-67.66-146.46-67.66-32.15,0-65.73,8.24-104.62,17.79,0,0-.68.16-.92.22-25.15,6.18-51.04,9.31-76.94,9.31s-51.79-3.13-76.94-9.31c-.23-.06-.93-.22-.93-.22-38.88-9.54-72.46-17.79-104.62-17.79-67.62,0-119.63,24.03-146.46,67.67-24.19,39.36-24.06,87.71.35,136.21.24.48.48.96.74,1.44.84,1.64,1.74,3.34,2.69,5.08.42.78.85,1.55,1.3,2.32,32,54.48,82.49,110.65,138.49,154.1,21.58,16.74,43.34,31.11,64.66,42.71.62.34,1.24.66,1.87.98,30.38,16.37,35.76,26.85,35.76,67.38,0,35.6-9.2,55.22-14.37,58.28-28.71,13.06-58.28,31.33-87.91,54.32-.05.04-.74.57-.99.77-.83.65-1.64,1.32-2.5,2.04-.21.17-.41.35-.62.52-25.95,22.28-35.09,57.24-23.29,89.08,11.92,32.18,42.63,53.79,76.43,53.79h.01c14.43,0,28.77-3.97,41.5-11.48l40.74-24.06c.33-.19.66-.39.98-.59,8.54-5.26,16.77-9.71,24.48-13.23,1.05-.43,2.09-.9,3.12-1.39,16.05-6.94,24.01-7.3,25.47-7.3,6.42,0,24.58,4.52,52.18,21.36.62.39,1.24.78,1.88,1.16l40.8,24.1c12.72,7.5,27.06,11.47,41.49,11.46,33.79,0,64.49-21.62,76.42-53.78,11.8-31.82,2.67-66.78-23.25-89.07-1.1-.94-2.24-1.88-3.41-2.79-.19-.15-.7-.54-.75-.58-36.22-28.09-71.94-48.9-106-61.93,2.91-19.22,3.74-36.85,3.74-50.68s-.54-30.86-3.25-49.34c.48-.18.96-.36,1.43-.55,33.72-13.18,68.74-33.75,104.1-61.17,56.05-43.49,106.53-99.66,138.5-154.12.18-.3.35-.61.53-.91.16-.27.31-.54.46-.82,1.06-1.91,2.06-3.8,3-5.62.26-.49.51-.98.75-1.47,24.41-48.5,24.54-96.85.34-136.2Z"/>
  <path class="cls-1" d="M775.34,281.72c-.05.11-.11.21-.17.32-.74,1.47-1.55,2.99-2.39,4.5-.03.06-.07.12-.1.18-28.12,47.9-72.94,97.62-122.95,136.42-30.67,23.78-60.78,41.5-88.57,52.36-2.47.97-5.01,1.42-7.51,1.42-8.77,0-16.97-5.63-19.75-14.54-3.23-10.38,2.14-21.45,12.26-25.42,23.85-9.36,50.71-25.24,78.17-46.54,45.19-35.06,87.2-81.51,112.4-124.27.01-.01.01-.02.01-.03.53-.96,1.01-1.87,1.44-2.71.12-.24.24-.48.37-.72,4.46-8.9,10.79-24.97,4.57-35.08-5.41-8.81-23.51-18.23-58.04-18.23-19.6,0-47.53,6.86-79.95,14.81l-.84.21c-33.24,8.16-67.46,12.3-101.69,12.3s-68.45-4.14-101.7-12.3l-.9-.22c-32.34-7.94-60.27-14.8-79.88-14.8-34.53,0-52.63,9.42-58.04,18.23-6.21,10.1.09,26.14,4.55,35.05.14.25.27.51.4.77.43.83.9,1.76,1.44,2.7h-.02s0,.02,0,.03c25.21,42.76,67.21,89.2,112.39,124.25,17.19,13.34,34.15,24.55,50.29,33.36v-.02c36.03,19.16,59.62,41.25,74.25,69.53,15.88,30.69,17.92,64.32,17.92,90.19,0,20.26-2.12,50.43-12.2,79.05-2.21,6.28-4.74,12.27-7.56,17.93,40.77.35,92.62,23.37,146.16,64.9.19.15.39.3.58.45.4.31.78.62,1.15.94,17.32,14.89-2.64,41.99-22.32,30.38l-40.77-24.08h.02c-32.64-20.09-62.75-31.18-85.79-31.18-14.77,0-32.44,4.56-51.84,13.13-.18.1-.37.19-.55.28v-.03c-10.68,4.75-21.88,10.72-33.38,17.8l-40.74,24.06c-19.67,11.61-39.64-15.5-22.31-30.38.37-.31.74-.62,1.12-.92.19-.15.39-.3.58-.45,26.33-20.42,52.25-36.37,76.64-47.34,40.13-19.48,49.79-73.69,49.79-114.54,0-56.49-12.02-92.21-70.19-123.16v.02c-18.25-9.92-37.14-22.38-56.24-37.2-50.02-38.8-94.82-88.52-122.95-136.41h0c-.02-.07-.06-.12-.09-.18-.84-1.51-1.65-3.03-2.39-4.5-.06-.11-.12-.21-.17-.32-10.23-20.21-19.07-49.77-3.07-75.8,15.05-24.48,48.19-37.96,93.33-37.96,24.61,0,54.8,7.41,89.75,15.99.3.07.61.15.92.22,60.31,14.81,123.31,14.81,183.62,0,.31-.07.62-.15.92-.22,34.95-8.58,65.14-15.99,89.75-15.99,45.14,0,78.28,13.48,93.33,37.96,16,26.03,7.16,55.59-3.07,75.8Z"/>
</svg>