<?xml version="1.0" encoding="UTF-8"?>
<svg id="Layer_1" data-name="Layer 1" xmlns="http://www.w3.org/2000/svg" viewBox="0 0 1026.47 1002.78">
  <defs>
    <style>
      .cls-1 {
        fill: #ddaa2a;
      }

      .cls-2 {
        fill: #282e47;
      }

      .cls-3 {
        fill: #ffd958;
      }
    </style>
  </defs>
  <path class="cls-1" d="M879.94,557.95c-18.69,18.64-41.34,36.24-67.82,52.75l6.53,38.13,10.89,63.47c7.7,44.98-4.62,90.65-33.82,125.29-29.64,35.15-72.74,55.3-118.28,55.32h-.02c-25.07,0-49.23-6.03-71.83-17.91l-79.89-42c-.33-.17-.69-.26-1.05-.26s-.72.09-1.05.26l-79.9,42.01c-22.29,11.71-47.12,17.9-71.84,17.9-45.54.01-88.67-20.15-118.3-55.3-29.21-34.64-41.53-80.32-33.81-125.31l15.26-88.98c.13-.74-.12-1.48-.64-2l-64.63-63c-42.37-41.31-57.34-101.94-39.06-158.22,18.3-56.28,66.03-96.53,124.59-105.04l89.34-12.98c.73-.11,1.36-.57,1.7-1.23l39.93-80.92c26.19-53.07,79.23-86.04,138.41-86.04s112.22,32.96,138.41,86.04l39.93,80.92c.32.67.96,1.13,1.7,1.23l89.34,12.98c58.57,8.51,106.31,48.77,124.59,105.05,18.23,56.12,3.41,116.54-38.67,157.84Z"/>
  <path class="cls-3" d="M857.11,499.08c-18.69,18.64-41.33,36.24-67.82,52.75l6.54,38.13,10.89,63.47c7.7,44.98-4.61,90.65-33.82,125.29-29.63,35.15-72.74,55.3-118.28,55.32h-.02c-25.07,0-49.23-6.03-71.83-17.91l-79.89-42c-.33-.17-.69-.26-1.05-.26s-.72.09-1.05.26l-79.9,42.01c-22.29,11.71-47.12,17.9-71.83,17.9-45.55,0-88.68-20.15-118.3-55.3-29.21-34.65-41.54-80.32-33.81-125.31l15.25-88.98c.13-.74-.11-1.48-.64-2l-64.63-63c-42.37-41.31-57.33-101.94-39.05-158.22,18.28-56.28,66.02-96.53,124.59-105.04l89.33-12.98c.74-.11,1.36-.57,1.7-1.24l39.93-80.91c26.19-53.07,79.23-86.04,138.41-86.04s112.22,32.96,138.41,86.04l39.93,80.91c.33.67.97,1.13,1.7,1.23l89.34,12.98c58.57,8.52,106.32,48.78,124.6,105.06,18.22,56.12,3.4,116.54-38.68,157.84Z"/>
  <path class="cls-2" d="M349.04,767.11c-25.78,0-50.25-11.49-67.14-31.52-16.71-19.82-23.46-44.98-19.02-70.86l15.26-88.99c3.85-22.45-3.59-45.34-19.9-61.23l-64.62-62.99c-24.01-23.4-32.48-57.74-22.12-89.62,10.36-31.88,37.4-54.68,70.57-59.5l89.33-12.98c22.53-3.27,42-17.42,52.08-37.84l39.93-80.91c14.84-30.06,44.88-48.74,78.4-48.74s63.57,18.68,78.4,48.74l39.93,80.91c10.08,20.43,29.55,34.57,52.09,37.84l89.33,12.98c33.18,4.82,60.22,27.63,70.58,59.51,10.35,31.86,1.89,66.18-22.08,89.57-41.37,41.35-108.34,77.6-199.05,107.74-2.26.75-4.62,1.14-7,1.14-9.28,0-17.66-5.86-20.86-14.58-.9-2.46-1.36-5.04-1.36-7.65,0-9.59,6.11-18.06,15.2-21.08,83-27.62,145.82-61.18,181.68-97.04l.25-.25c12.05-11.74,16.12-28.21,10.95-44.13-5.17-15.91-18.14-26.84-34.7-29.25l-89.33-12.98c-37.01-5.38-69-28.61-85.56-62.15l-39.93-80.92c-7.41-15-21.82-23.96-38.55-23.96s-31.14,8.96-38.55,23.96l-39.93,80.91c-16.56,33.55-48.54,56.78-85.54,62.16l-89.33,12.98c-16.56,2.41-29.53,13.34-34.7,29.25-5.17,15.92-1.1,32.39,10.88,44.06l64.62,62.99c26.78,26.11,38.99,63.71,32.68,100.57l-15.27,88.99c-2.18,12.74,1.09,25.07,9.21,34.7,8.3,9.84,20.69,15.72,33.15,15.72,6.83,0,13.56-1.72,20.02-5.11l79.9-42.01c16.25-8.53,34.54-13.04,52.88-13.04s36.64,4.51,52.87,13.06l79.9,42c6.45,3.39,13.18,5.11,20.02,5.11,12.47,0,24.85-5.87,33.14-15.72,8.13-9.63,11.4-21.96,9.21-34.71l-10.88-63.44c-2.07-12.08,6.07-23.58,18.15-25.66,1.26-.22,2.53-.32,3.78-.32,10.84,0,20.03,7.76,21.87,18.46l10.88,63.45c4.44,25.87-2.32,51.04-19.03,70.85-16.89,20.03-41.35,31.52-67.12,31.52-14.11,0-27.8-3.44-40.7-10.22l-79.89-42c-9.89-5.2-21.02-7.95-32.19-7.95s-22.3,2.75-32.19,7.95l-79.9,42.01c-12.89,6.78-26.58,10.21-40.7,10.21Z"/>
</svg>