<svg xmlns="http://www.w3.org/2000/svg" version="1.1" xmlns:xlink="http://www.w3.org/1999/xlink" xmlns:svgjs="http://svgjs.dev/svgjs" width="31" height="33"><svg width="31" height="33" viewBox="0 0 31 33" fill="none" xmlns="http://www.w3.org/2000/svg">
<path d="M27.1763 16.2874C25.3022 15.0342 22.4824 14.4397 18.7171 14.5076C23.0279 14.1754 26.8989 12.2503 27.1103 7.97729C27.1122 7.95652 27.1122 7.93765 27.1122 7.91878C27.114 7.88103 27.1159 7.84328 27.1159 7.80365C27.1178 7.73759 27.1197 7.67342 27.1197 7.60736C27.1197 6.47116 26.9064 5.46141 26.4799 4.57812C26.0533 3.69483 25.4815 2.97385 24.7643 2.4133C24.0471 1.85275 23.1789 1.38846 22.1616 1.02419C21.1443 0.658043 20.0836 0.399473 18.9757 0.25037C17.8678 0.101267 16.6712 0.0257721 15.3859 0.0257721H0V11.1953C2.77444 11.25 5.00343 13.5148 5.00343 16.2987C5.00343 16.4101 4.99966 16.5214 4.994 16.6328C5.63759 16.3384 6.35291 16.176 7.10408 16.176C8.6272 16.176 9.99554 16.8423 10.9317 17.903H15.4331C18.1698 17.903 19.5381 18.7183 19.5381 20.349C19.5381 21.2021 19.1795 21.8552 18.4604 22.3119C17.7413 22.7687 16.5089 22.997 14.7593 22.997H11.9131C11.4715 24.237 10.5636 25.2562 9.39913 25.8451C11.8112 26.2509 13.6495 28.3515 13.6495 30.8787C13.6495 31.3336 13.591 31.7752 13.4778 32.1942H14.1515C15.1839 32.1942 16.1333 32.1716 16.9996 32.1263C17.8678 32.081 18.8775 31.9809 20.0288 31.8243C21.1801 31.6657 22.2088 31.4581 23.1128 31.1958C24.0187 30.9353 24.9379 30.5597 25.8721 30.0747C26.8064 29.5877 27.584 29.0121 28.2068 28.3458C28.8259 27.6815 29.3355 26.851 29.7318 25.8564C30.1282 24.8618 30.3264 23.7444 30.3264 22.5025C30.3264 19.7658 29.2751 17.6954 27.1744 16.2893L27.1763 16.2874ZM13.5495 12.5863H10.9015V7.85272H13.5495C14.9688 7.85272 16.0163 8.03013 16.6901 8.3793C17.3639 8.73035 17.6998 9.33431 17.6998 10.1855C17.6998 11.0367 17.3563 11.6501 16.6674 12.0238C15.9785 12.3975 14.9405 12.5844 13.5495 12.5844V12.5863Z" fill="#EE2554"></path>
</svg><style>@media (prefers-color-scheme: light) { :root { filter: none; } }
@media (prefers-color-scheme: dark) { :root { filter: none; } }
</style></svg>