<?xml version="1.0" encoding="UTF-8"?>
<svg id="Layer_1" data-name="Layer 1" xmlns="http://www.w3.org/2000/svg" viewBox="0 0 772.12 798.66">
  <defs>
    <style>
      .cls-1 {
        fill: #ffd958;
      }

      .cls-1, .cls-2, .cls-3 {
        stroke-width: 0px;
      }

      .cls-2 {
        fill: #282e47;
      }

      .cls-3 {
        fill: #ddaa2a;
      }
    </style>
  </defs>
  <path class="cls-3" d="M722.15,288.42c-18.37-43.05-44.56-81.68-77.85-114.83-33.29-33.15-72.04-59.19-115.18-77.38-44.69-18.85-92.12-28.41-140.96-28.41-86.17,0-169.71,30.73-235.24,86.53-64.75,55.14-108.27,131.45-122.54,214.89-.79,4.59-1.19,9.3-1.19,14,0,29.55,15.66,55.93,39.48,70.66-1.52,2.25-2.96,4.55-4.33,6.9-12.18,21.06-17.69,45.94-15.93,71.95,1.81,26.74,11.3,55.17,28.2,84.5.73,1.27,1.5,2.52,2.3,3.73,31.66,51.38,75.94,94.4,128.23,124.53,54.83,31.59,117.43,48.29,181.01,48.29,49.03,0,96.67-9.69,141.58-28.81,43.28-18.42,82.14-44.74,115.48-78.24,33.35-33.5,59.51-72.48,77.74-115.85,18.92-45.01,28.4-92.7,28.19-141.74-.22-48.8-9.98-96.15-29.01-140.75Z"/>
  <path class="cls-1" d="M700.87,233.54c-18.37-43.05-44.56-81.68-77.85-114.83-33.29-33.15-72.04-59.19-115.18-77.38-44.69-18.85-92.12-28.41-140.96-28.41-86.17,0-169.71,30.73-235.24,86.53C66.9,154.6,23.38,230.92,9.11,314.36c-.79,4.59-1.19,9.3-1.19,14,0,29.55,15.66,55.93,39.48,70.66-1.52,2.25-2.96,4.55-4.33,6.9-12.18,21.06-17.69,45.94-15.93,71.95,1.81,26.74,11.3,55.17,28.2,84.5.73,1.27,1.5,2.52,2.3,3.73,31.66,51.38,75.94,94.4,128.23,124.53,54.83,31.59,117.43,48.29,181.01,48.29,49.03,0,96.67-9.69,141.58-28.81,43.28-18.42,82.14-44.74,115.48-78.24,33.35-33.5,59.51-72.48,77.74-115.85,18.92-45.01,28.4-92.7,28.19-141.74-.22-48.8-9.98-96.15-29.01-140.75Z"/>
  <path class="cls-2" d="M366.89,676.56c-52.67,0-104.5-13.82-149.88-39.96-43.76-25.21-80.76-61.32-107.04-104.46-.21-.28-.41-.58-.59-.89-27.53-47.78-21.9-77.54-12.32-94.09,9.46-16.37,26.72-26.14,46.16-26.14,39.34,0,61.43,25.71,80.92,48.4,13.38,15.57,27.2,31.67,48.45,43.89,24.33,14,55.18,20.8,94.3,20.8,32.07,0,70.37-15.83,102.46-42.33,26.87-22.2,44.51-47.99,48.38-70.76,1.72-10.09,10.31-17.42,20.43-17.42,6.11,0,11.86,2.67,15.79,7.33,3.96,4.69,5.64,10.86,4.61,16.93-12.42,73.14-109.16,147.66-191.68,147.66-106.19,0-145.48-45.73-174.16-79.12-16.95-19.72-29.19-33.97-49.51-33.97-4.75,0-8.22,1.83-10.31,5.45-2.11,3.65-7.46,18.24,12.31,52.61,10.71,17.58,23.63,33.98,38.38,48.74,48.95,48.96,114.04,75.92,183.29,75.92s134.35-26.96,183.3-75.92c48.96-48.96,75.93-114.06,75.93-183.29,0-34.21-6.61-67.55-19.65-99.07-13.04-31.53-31.9-59.79-56.06-84.01-48.99-49.1-114.17-76.14-183.52-76.14s-134.33,26.96-183.29,75.92c-38.24,38.24-63.21,86.35-72.2,139.14-1.7,10-10.28,17.25-20.39,17.25-.88,0-1.76-.06-2.64-.17-10.31-1.3-18.09-10.12-18.09-20.5,0-1.19.1-2.37.3-3.5,11.81-69.04,47.85-132.24,101.5-177.92,54.26-46.2,123.44-71.65,194.81-71.65,80.07,0,155.4,31.11,212.13,87.61,56.71,56.48,88.14,131.65,88.5,211.67.18,40.6-7.67,80.07-23.31,117.3-15.1,35.93-36.79,68.24-64.44,96.02-27.65,27.77-59.85,49.59-95.71,64.85-37.15,15.81-76.57,23.83-117.17,23.83Z"/>
  <path class="cls-2" d="M280.61,390.57c-11.42,0-20.71-9.29-20.71-20.71v-91.66c0-11.42,9.29-20.71,20.71-20.71s20.71,9.29,20.71,20.71v91.66c0,11.42-9.29,20.71-20.71,20.71Z"/>
  <path class="cls-2" d="M457.19,390.57c-5.53,0-10.73-2.16-14.64-6.07l-45.83-45.83c-8.07-8.07-8.07-21.2,0-29.28l45.84-45.83c3.91-3.91,9.11-6.07,14.64-6.07s10.73,2.16,14.64,6.07c3.91,3.89,6.07,9.1,6.07,14.64s-2.16,10.75-6.08,14.66l-31.17,31.17,31.19,31.19c8.07,8.07,8.07,21.21,0,29.29-3.92,3.92-9.12,6.07-14.64,6.07Z"/>
</svg>