<?xml version="1.0" encoding="UTF-8"?>
<svg id="Layer_1" data-name="Layer 1" xmlns="http://www.w3.org/2000/svg" viewBox="0 0 781.07 764.99">
  <defs>
    <style>
      .cls-1 {
        fill: #ee2554;
      }

      .cls-1, .cls-2, .cls-3 {
        stroke-width: 0px;
      }

      .cls-2 {
        fill: #fff6ef;
      }

      .cls-3 {
        fill: #c42751;
      }
    </style>
  </defs>
  <path class="cls-3" d="M729.75,299.71l-64.87-112.35c-20.62-35.72-50.4-65.5-86.12-86.12-35.72-20.62-76.4-31.52-117.64-31.52h-129.74c-83.78,0-161.86,45.08-203.75,117.64l-75.76,131.22c-18.82,32.6-12.97,72.78,11.72,98.78-24.69,26-30.54,66.18-11.72,98.78l75.76,131.21c41.9,72.56,119.97,117.64,203.75,117.64h129.74c41.24,0,81.92-10.9,117.64-31.52,35.72-20.62,65.5-50.4,86.12-86.12l64.87-112.37c20.61-35.72,31.51-76.39,31.51-117.63s-10.9-81.91-31.52-117.64Z"/>
  <path class="cls-1" d="M708.47,244.83l-64.87-112.35c-20.62-35.72-50.4-65.5-86.12-86.12-35.72-20.62-76.4-31.52-117.64-31.52h-129.74c-83.78,0-161.86,45.08-203.75,117.64L30.58,263.7c-18.82,32.6-12.97,72.78,11.72,98.78-24.69,26-30.54,66.18-11.72,98.78l75.76,131.21c41.9,72.56,119.97,117.64,203.75,117.64h129.74c41.24,0,81.92-10.9,117.64-31.52,35.72-20.62,65.5-50.4,86.12-86.12l64.88-112.37c20.61-35.72,31.51-76.39,31.51-117.63s-10.9-81.91-31.52-117.64Z"/>
  <g>
    <path class="cls-2" d="M310.1,647.75c-61.57,0-118.95-33.13-149.74-86.46l-75.77-131.22c-5.71-9.89-2.31-22.58,7.58-28.29.04-.02.08-.05.12-.07,3.12-1.77,6.65-2.71,10.22-2.71,7.38,0,14.26,3.97,17.95,10.36l75.76,131.23c23.42,40.55,67.05,65.75,113.88,65.75h129.74c46.83,0,90.47-25.19,113.89-65.75l64.87-112.36c23.41-40.55,23.41-90.94,0-131.5l-64.87-112.36c-23.42-40.55-67.05-65.75-113.89-65.75h-129.74c-46.83,0-90.46,25.19-113.88,65.75l-75.77,131.23c-3.69,6.39-10.57,10.36-17.95,10.36-3.62,0-7.2-.96-10.35-2.78-9.89-5.71-13.29-18.4-7.58-28.29l75.77-131.22c30.79-53.33,88.17-86.46,149.74-86.46h129.74c61.58,0,118.96,33.13,149.75,86.46l64.87,112.35c30.78,53.33,30.78,119.58,0,172.91l-64.87,112.36c-30.79,53.33-88.17,86.46-149.75,86.46h-129.74Z"/>
    <path class="cls-2" d="M379.72,480.14c-64.88,0-117.66-52.78-117.66-117.66s52.78-117.66,117.66-117.66,117.65,52.78,117.65,117.66-52.78,117.66-117.65,117.66ZM379.72,286.23c-42.04,0-76.25,34.2-76.25,76.25s34.2,76.25,76.25,76.25,76.25-34.2,76.25-76.25-34.2-76.25-76.25-76.25Z"/>
  </g>
</svg>