<svg width="116" height="37" viewBox="0 0 116 37" fill="none" xmlns="http://www.w3.org/2000/svg">
	<path d="M37.17 11.2601C35.3449 11.2601 33.869 10.7184 32.7403 9.63317C31.6117 8.54981 31.0474 7.2211 31.0474 5.6508C31.0474 4.08051 31.6192 2.74613 32.763 1.64768C33.9067 0.549226 35.377 0 37.1719 0C38.9668 0 40.405 0.549226 41.5355 1.64768C42.6642 2.74613 43.2285 4.08051 43.2285 5.6508C43.2285 7.2211 42.6717 8.5668 41.5563 9.64449C40.4427 10.7222 38.98 11.2601 37.17 11.2601ZM42.5773 36.1942H31.6966V11.5621H32.0552C33.3254 12.7889 35.0297 13.4023 37.17 13.4023C39.3103 13.4023 40.9466 12.7889 42.2169 11.5621H42.5755V36.1923L42.5773 36.1942Z" fill="#EE2554"/>
	<path d="M55.9909 36.7548C53.1938 36.7548 51.0196 35.8979 49.4625 34.186C47.9073 32.4742 47.1297 30.2037 47.1297 27.3783V15.1084H44.191V8.96126C46.1199 8.96126 47.5374 8.59133 48.4414 7.85148C49.3455 7.11163 49.7984 5.83577 49.7984 4.02577H57.9632V8.62531H62.6968V15.9823L57.9632 15.2424V24.0131C57.9632 25.0304 58.135 25.8155 58.4785 26.3685C58.822 26.9215 59.4203 27.199 60.2734 27.199C61.0057 27.199 61.6266 26.8102 62.1343 26.0326H62.6949V34.4446C61.0208 35.9847 58.7842 36.7548 55.9871 36.7548H55.9909Z" fill="#EE2554"/>
	<path d="M79.1641 36.7548C76.8615 36.7548 74.7306 36.3848 72.7715 35.645C70.8124 34.9051 69.1704 33.8916 67.8474 32.6044C66.5224 31.3191 65.4881 29.7922 64.7407 28.0275C63.9933 26.2628 63.6196 24.3792 63.6196 22.3748C63.6196 20.3704 63.9631 18.5623 64.652 16.8109C65.339 15.0613 66.2959 13.5438 67.5227 12.2566C68.7476 10.9713 70.2556 9.95402 72.043 9.20662C73.8303 8.45922 75.7706 8.08552 77.8637 8.08552C79.6283 8.08552 81.2911 8.34409 82.8539 8.85934C84.4166 9.3746 85.7963 10.1126 86.9929 11.0695C88.1895 12.0264 89.1351 13.2532 89.8296 14.748C90.5261 16.2428 90.8733 17.9112 90.8733 19.7495C90.8733 20.7517 90.7525 21.9105 90.5147 23.226L73.5114 22.4635C73.6756 23.9734 74.3664 25.0927 75.5856 25.8174C76.8048 26.5422 78.3336 26.9064 80.1719 26.9064C83.522 26.9064 86.4606 26.0005 88.9878 24.1924H89.5937V34.354C88.4424 35.058 86.9533 35.6318 85.1301 36.081C83.305 36.5302 81.3176 36.7548 79.1641 36.7548ZM73.87 19.9741L81.6309 19.5702C81.4063 18.8832 80.9759 18.3396 80.3399 17.9452C79.7038 17.5488 78.93 17.3506 78.0184 17.3506C77.1068 17.3506 76.299 17.5715 75.5516 18.0131C74.8023 18.4548 74.2437 19.1078 73.87 19.976V19.9741Z" fill="#EE2554"/>
	<path d="M27.1763 20.2874C25.3022 19.0342 22.4824 18.4397 18.7171 18.5076C23.0279 18.1754 26.8989 16.2503 27.1103 11.9773C27.1122 11.9565 27.1122 11.9377 27.1122 11.9188C27.114 11.881 27.1159 11.8433 27.1159 11.8036C27.1178 11.7376 27.1197 11.6734 27.1197 11.6074C27.1197 10.4712 26.9064 9.46141 26.4799 8.57812C26.0533 7.69483 25.4815 6.97385 24.7643 6.4133C24.0471 5.85275 23.1789 5.38846 22.1616 5.02419C21.1443 4.65804 20.0836 4.39947 18.9757 4.25037C17.8678 4.10127 16.6712 4.02577 15.3859 4.02577H0V15.1953C2.77444 15.25 5.00343 17.5148 5.00343 20.2987C5.00343 20.4101 4.99966 20.5214 4.994 20.6328C5.63759 20.3384 6.35291 20.176 7.10408 20.176C8.6272 20.176 9.99554 20.8423 10.9317 21.903H15.4331C18.1698 21.903 19.5381 22.7183 19.5381 24.349C19.5381 25.2021 19.1795 25.8552 18.4604 26.3119C17.7413 26.7687 16.5089 26.997 14.7593 26.997H11.9131C11.4715 28.237 10.5636 29.2562 9.39913 29.8451C11.8112 30.2509 13.6495 32.3515 13.6495 34.8787C13.6495 35.3336 13.591 35.7752 13.4778 36.1942H14.1515C15.1839 36.1942 16.1333 36.1716 16.9996 36.1263C17.8678 36.081 18.8775 35.9809 20.0288 35.8243C21.1801 35.6657 22.2088 35.4581 23.1128 35.1958C24.0187 34.9353 24.9379 34.5597 25.8721 34.0747C26.8064 33.5877 27.584 33.0121 28.2068 32.3458C28.8259 31.6815 29.3355 30.851 29.7318 29.8564C30.1282 28.8618 30.3264 27.7444 30.3264 26.5025C30.3264 23.7658 29.2751 21.6954 27.1744 20.2893L27.1763 20.2874ZM13.5495 16.5863H10.9015V11.8527H13.5495C14.9688 11.8527 16.0163 12.0301 16.6901 12.3793C17.3639 12.7303 17.6998 13.3343 17.6998 14.1855C17.6998 15.0367 17.3563 15.6501 16.6674 16.0238C15.9785 16.3975 14.9405 16.5844 13.5495 16.5844V16.5863Z" fill="#EE2554"/>
	<path d="M116 25.808C114.683 25.808 113.458 25.8533 112.321 25.942C111.185 26.0307 110.26 26.1194 109.551 26.1987C108.839 26.2836 107.994 26.4572 107.016 26.7252C106.035 26.9951 105.363 27.1876 104.997 27.299C104.63 27.4104 103.874 27.6784 102.718 28.0955C101.569 28.5164 100.805 28.7919 100.431 28.9259V28.5673L115.415 18.2264V14.1817C114.233 14.6574 112.859 14.6441 111.633 14.0213C111.383 13.8949 111.151 13.7514 110.938 13.5891C109.573 14.8065 107.548 15.133 105.819 14.2591C104.193 13.4362 103.27 11.7753 103.305 10.0691C102.262 10.3428 101.116 10.2503 100.078 9.72565C99.525 9.44443 99.0532 9.06884 98.6738 8.62719H92.4417V19.0134C94.9859 19.0134 97.213 18.8775 99.1268 18.6095C101.043 18.3415 102.5 18.0414 103.502 17.713C104.504 17.3827 105.761 16.8977 107.271 16.256V16.6353L91.5679 27.2027V36.198H115.998V25.8117L116 25.808Z" fill="#EE2554"/>
</svg>
