<?xml version="1.0" encoding="UTF-8"?>
<svg id="Layer_1" data-name="Layer 1" xmlns="http://www.w3.org/2000/svg" viewBox="0 0 1026.47 1002.78">
  <defs>
    <style>
      .cls-1 {
        fill: #ddaa2a;
      }

      .cls-2 {
        fill: #282e47;
      }

      .cls-3 {
        fill: #ffd958;
      }
    </style>
  </defs>
  <path class="cls-1" d="M956.85,568.81c-7.74-6.59-16.42-12.98-25.99-19.14,23.48-13.83,42.5-29.17,57.61-46.38,27.46-31.26,41.97-68.96,41.97-109.04,0-47.98-20.71-90.44-56.83-116.49-24.93-17.97-54.93-27.08-89.17-27.08-26.26,0-50.63,5.58-67.95,10.93-2.27-7.01-5.47-13.74-9.57-19.97-12.47-18.96-32.44-32.13-54.78-36.12-38.31-6.85-118.78-18.33-227.2-18.33-84.22,0-161.77,7.17-218.37,20.18-37.05,8.52-65.83,19.42-87.99,33.34-48.3,30.32-55.51,69.91-55.51,90.81s7.29,47.84,39.9,72.89c-.67,1.01-1.32,2.04-1.95,3.08-11.71,19.47-14.92,43.19-8.82,65.07,6.62,23.72,14.33,46.28,23.1,67.57-35.96,9.05-62.25,18.33-82.71,28.91-23.44,12.12-40.78,26.71-53.01,44.58-13.09,19.12-19.73,41.32-19.73,65.98s8.99,61.64,51.83,96.03c25.05,20.11,59.49,37.51,102.35,51.71,85.18,28.22,200.34,43.13,333.02,43.13s244.13-16.61,323.38-48.03c119.89-47.53,137.8-116.87,137.8-153.97,0-25.48-8.92-63.46-51.39-99.65Z"/>
  <path class="cls-3" d="M935.57,513.94c-7.74-6.59-16.42-12.98-25.99-19.14,23.48-13.83,42.5-29.17,57.61-46.38,27.46-31.26,41.97-68.96,41.97-109.04,0-47.98-20.71-90.44-56.83-116.49-24.93-17.97-54.93-27.08-89.17-27.08-26.26,0-50.63,5.58-67.95,10.93-2.27-7.01-5.47-13.74-9.57-19.97-12.47-18.96-32.44-32.13-54.78-36.12-38.31-6.85-118.78-18.33-227.2-18.33-84.22,0-161.77,7.17-218.37,20.18-37.05,8.52-65.83,19.42-87.99,33.34-48.3,30.32-55.51,69.91-55.51,90.81s7.29,47.84,39.9,72.89c-.67,1.01-1.32,2.04-1.95,3.08-11.71,19.47-14.92,43.19-8.82,65.07,6.62,23.72,14.33,46.28,23.1,67.57-35.96,9.05-62.25,18.33-82.71,28.91-23.44,12.12-40.78,26.71-53.01,44.58-13.09,19.12-19.73,41.32-19.73,65.98s8.99,61.64,51.83,96.03c25.05,20.11,59.49,37.51,102.35,51.71,85.18,28.22,200.34,43.13,333.02,43.13s244.13-16.61,323.38-48.03c119.89-47.53,137.8-116.87,137.8-153.97,0-25.48-8.92-63.46-51.39-99.65Z"/>
  <path class="cls-2" d="M834.43,525.35c-2.71-1.19-5.53-1.76-8.3-1.76-8.31,0-16.19,5.05-19.36,13.33-3.95,10.34.94,21.91,11.06,26.38,47.26,20.88,65.36,41.38,65.36,50.29,0,14.36-22.35,37.71-72.27,57.5-46.86,18.58-134.37,40.72-285.13,40.72s-243.36-19.69-295.3-36.21c-70.07-22.29-87.56-46.22-88.12-50.88,0-5.6.96-7.32,4.26-10.31,5.45-4.93,18.21-12.7,48.06-21.77,28.6-8.69,67.72-17.08,120.04-26.28,45.55,52.07,110.56,89.78,203.32,89.78,137.96,0,214.53-83.4,257-173.42,27.47-8.13,51.09-16.59,70.98-25.42,33.48-14.85,57.79-31.22,74.31-50.04,17.56-19.99,26.46-42.83,26.46-67.88,0-37.94-19.38-57.57-30.93-65.9-34.09-24.57-81.4-14.16-106.56-5.77-155.56,51.85-301.51,50.55-374.67,45.17-51.12-3.77-97.98-11.54-135.51-22.48-21.77-6.35-36.23-12.62-45.19-17.47,10.34-6.16,31.42-15.28,72.62-23.04,47.24-8.89,110.14-13.79,177.11-13.79,100.98,0,175.63,10.82,208.94,16.74,1.22.22,2.44.32,3.64.32,9.45,0,17.92-6.48,20.16-15.99,2.71-11.56-4.82-23.04-16.51-25.13-35.2-6.29-111.94-17.36-216.23-17.36-145.71,0-299.51,22.26-299.51,81.96s290.72,123.16,576.04,43.29c-5.4,34.64-15.43,80.46-34.02,125.66-20.75,50.46-47.99,90.24-80.97,118.23-40.35,34.26-88.48,50.91-147.15,50.91s-106.8-16.65-147.15-50.91c-32.98-27.99-60.22-67.77-80.97-118.23-7.72-18.77-13.97-37.65-19.02-55.8-2.94-10.57-13.67-16.98-24.39-14.62-11.6,2.55-18.72,14.32-15.52,25.76,11.65,41.76,29.26,87.38,55.84,128.35-143.78,26.54-185.9,49.04-185.9,95.45,0,64.76,155.53,128.51,424.84,128.51s398.81-69.82,398.81-139.64c0-39.89-48.55-69.86-90.17-88.24ZM905.38,339.38c0,32.03-24.35,63.37-110.16,93.4,16.54-48.21,24.71-94.26,28.73-126.28,22.52-7.24,81.43-20.5,81.43,32.88Z"/>
</svg>