<?xml version="1.0" encoding="UTF-8"?>
<svg id="Layer_1" data-name="Layer 1" xmlns="http://www.w3.org/2000/svg" viewBox="0 0 1026.47 1002.78">
  <defs>
    <style>
      .cls-1 {
        fill: #272e49;
      }

      .cls-2 {
        fill: #ddaa2a;
      }

      .cls-3 {
        fill: #ffd958;
      }
    </style>
  </defs>
  <path class="cls-2" d="M899.03,861.85c-31.1,31.85-76.72,43.07-119.04,29.28l-26.78-8.73c-219.95-71.7-345.5-90.21-412.08-93.11-45.77-1.98-83.53-33.2-95.53-75.26-7.92-.67-15.86-2.26-23.67-4.8h0c-15.15-4.92-29.17-13.39-40.55-24.5-29.34-28.65-39.13-72.01-24.94-110.48,37.46-101.5,95.04-192.47,171.16-270.43,62.04-63.53,133.6-115.31,212.7-153.89,38.27-18.67,82.81-20.13,122.19-3.98,39.3,16.11,69.93,48.33,84.03,88.39l178.95,507.79c14.8,41.98,4.67,87.86-26.44,119.71Z"/>
  <path class="cls-3" d="M831.23,832.9c-31.1,31.85-76.72,43.07-119.04,29.28l-26.78-8.73c-219.95-71.7-345.5-90.21-412.08-93.11-45.77-1.98-83.53-33.2-95.53-75.26-7.92-.67-15.86-2.26-23.67-4.8h0c-15.15-4.92-29.17-13.39-40.55-24.5-29.34-28.65-39.13-72.01-24.94-110.48,37.46-101.5,95.04-192.47,171.16-270.43,62.04-63.53,133.6-115.31,212.7-153.89,38.27-18.67,82.81-20.13,122.19-3.98,39.3,16.11,69.93,48.33,84.03,88.39l178.95,507.79c14.8,41.98,4.67,87.86-26.44,119.71Z"/>
  <g>
    <path class="cls-1" d="M506.73,191.19c-69.31,33.81-134.09,79.92-191.06,138.26-69.96,71.64-121.19,154.62-153.76,242.87-3.66,9.94-.86,20.64,6.23,27.56,2.76,2.7,6.17,4.82,10.09,6.09,13.25,4.32,27.55-2.6,32.37-15.68,30.12-81.6,77.5-158.34,142.19-224.59,51.58-52.82,111.03-95.84,176.69-127.89,6.82-3.32,12.86-1.77,15.86-.53,2.95,1.21,8.27,4.3,10.75,11.3l37.43,106.22c-8.71-.03-17.56,1.41-26.23,4.5-40.44,14.41-61.62,59.01-47.22,99.46,14.4,40.44,59.02,61.64,99.46,47.25,8.49-3.03,16.14-7.38,22.77-12.76l83.38,236.6c-27.27-8.89-53.65-17.15-79.18-24.81,5.53-7.71,9.72-16.57,12.15-26.3,10.43-41.64-14.97-84-56.62-94.44-41.64-10.43-84,14.97-94.43,56.61-2.17,8.68-2.79,17.38-2.03,25.82-90.8-21.82-166.51-33.65-226.59-36.27-7.71-.33-14.73,2.72-19.71,7.81-4.59,4.7-7.42,11.13-7.38,18.25.07,13.84,10.98,25.19,24.81,25.78,57.89,2.52,148.03,15.05,284.5,52.24,1,.27,1.99.54,2.99.81.02,0,.03,0,.04,0,43.6,11.94,91.91,26.39,145.36,43.81l26.76,8.73c29.94,9.75,58.08-19.06,47.61-48.75l-116.96-331.86-.46-1.32-61.54-174.62c-14.13-40.11-60.07-58.8-98.29-40.15ZM576.82,684.99c-13.9-3.48-22.35-17.58-18.88-31.48,3.49-13.9,17.59-22.35,31.49-18.87,13.91,3.48,22.35,17.58,18.88,31.48-3.48,13.9-17.58,22.35-31.49,18.87ZM617.87,423.95c4.8,13.5-2.24,28.35-15.75,33.16-13.5,4.81-28.36-2.25-33.16-15.75-4.81-13.51,2.24-28.35,15.75-33.16,13.5-4.81,28.35,2.24,33.16,15.75Z"/>
    <path class="cls-1" d="M667.02,407.28c-.07-.25-.16-.5-.25-.75-.07-.19-.14-.38-.21-.57l.46,1.32Z"/>
    <path class="cls-1" d="M359.32,435.25c-40.44,14.4-61.63,59.01-47.23,99.46,14.4,40.44,59.02,61.64,99.46,47.24,40.45-14.4,61.64-59.03,47.24-99.47s-59.01-61.63-99.47-47.23ZM394.14,533.04c-13.5,4.81-28.35-2.25-33.16-15.75-4.81-13.5,2.25-28.35,15.75-33.16,13.51-4.81,28.35,2.25,33.16,15.75,4.81,13.5-2.23,28.35-15.75,33.16Z"/>
  </g>
</svg>