<?xml version="1.0" encoding="UTF-8"?>
<svg id="Layer_1" data-name="Layer 1" xmlns="http://www.w3.org/2000/svg" viewBox="0 0 1026.47 1002.78">
  <defs>
    <style>
      .cls-1 {
        fill: #ddaa2a;
      }

      .cls-2 {
        fill: #282e47;
      }

      .cls-3 {
        fill: #ffd958;
      }
    </style>
  </defs>
  <path class="cls-1" d="M487.3,927.82c-48.52,0-94.75-10.1-137.39-30.02-38.18-17.84-72.38-42.96-101.63-74.69-53.29-57.79-85.11-132.83-85.11-200.76,0-31.24,7.55-61.67,21.85-87.99,13.5-24.87,33.17-46.33,57-62.22,3.1-4.7,6.4-9.29,9.88-13.72-18.37-24.73-33.96-52.35-45.39-80.46-24.26-59.66-28.78-117.23-12.73-162.13,9.89-27.67,27.36-50.39,50.5-65.68,23.23-15.35,51.18-23.13,83.07-23.13,48.73,0,101.42,19.83,156.83,58.97,8.09-16.08,21.59-29.17,38.35-36.64l.37-.16c10.09-4.43,20.75-6.67,31.72-6.67,23.62,0,45.77,10.71,60.54,28.38,14.41-13.75,33.65-21.58,54.32-21.58,9.95,0,19.69,1.86,28.96,5.52l.58.23c19.32,7.81,34.49,22.63,42.77,41.72,4.32,9.96,6.51,20.43,6.56,30.97,1.48-.08,2.97-.13,4.46-.13,32.53,0,62.14,20.44,73.69,50.85l.08.2c6.49,17.32,6.76,35.89.88,53.1,21.61,8.31,40.54,20.16,56.41,35.33,30.32,28.99,47.7,69.06,47.7,109.96,0,66.05-34.92,126.66-100.99,175.28-15.07,11.09-31.58,21.41-49.18,30.76-8.34,61.55-33.91,116.13-74.19,158.22-54.15,56.58-130.19,86.49-219.91,86.49Z"/>
  <path class="cls-3" d="M467.11,875.76c-48.52,0-94.75-10.1-137.39-30.02-38.18-17.84-72.38-42.96-101.63-74.69-53.29-57.79-85.11-132.83-85.11-200.76,0-31.24,7.55-61.67,21.85-87.99,13.5-24.87,33.17-46.33,57-62.22,3.1-4.7,6.4-9.29,9.88-13.72-18.37-24.73-33.96-52.35-45.39-80.46-24.26-59.66-28.78-117.23-12.73-162.13,9.89-27.67,27.36-50.39,50.5-65.68,23.23-15.35,51.18-23.13,83.07-23.13,48.73,0,101.42,19.83,156.83,58.97,8.09-16.08,21.59-29.17,38.35-36.64l.37-.16c10.09-4.43,20.75-6.67,31.72-6.67,23.62,0,45.77,10.71,60.54,28.38,14.41-13.75,33.65-21.58,54.32-21.58,9.95,0,19.69,1.86,28.96,5.52l.58.23c19.32,7.81,34.49,22.63,42.77,41.72,4.32,9.96,6.51,20.43,6.56,30.97,1.48-.08,2.97-.13,4.46-.13,32.53,0,62.14,20.44,73.69,50.85l.08.2c6.49,17.32,6.76,35.89.88,53.1,21.61,8.31,40.54,20.16,56.41,35.33,30.32,28.99,47.7,69.06,47.7,109.96,0,66.05-34.92,126.66-100.99,175.28-15.07,11.09-31.58,21.41-49.18,30.76-8.34,61.55-33.91,116.13-74.19,158.22-54.15,56.58-130.19,86.49-219.91,86.49Z"/>
  <g>
    <path class="cls-2" d="M467.11,816.59c-39.81,0-77.6-8.23-112.34-24.46-31.18-14.56-59.16-35.15-83.18-61.19-42.83-46.44-69.43-107.99-69.43-160.64,0-22.91,5.78-44.83,16.72-63.37,10.8-18.31,26.69-33.39,46.05-43.76,10.38-19.06,24.57-35.17,42.23-47.91,2.37-1.7,4.8-3.35,7.28-4.93-66.71-60.46-106.94-165.6-85.13-226.63,8.08-22.61,28.15-49.56,77.85-49.56,31.5,0,66.78,12.16,104.86,36.15,29.93,18.85,61.75,45.06,94.6,77.91,45.8,45.81,81.03,92.15,92.31,107.47,48.66-20.2,92.36-30.44,129.98-30.44s71.58,11.27,93.88,32.6c18.7,17.88,29.42,42.37,29.42,67.19,0,40.51-19.4,78.24-57.67,112.12-30.35,26.88-64.98,44.34-82.93,52.36-2.55,1.14-5.25,1.72-8.03,1.72h0c-8.18,0-15.58-5.15-18.43-12.81-3.6-9.68.96-20.57,10.39-24.79,27.53-12.35,117.37-58.11,117.37-128.6,0-17.92-9.82-35.09-26.28-45.93-10.06-6.64-28.29-14.55-58.01-14.55-33.63,0-74.06,10.01-120.17,29.76-3.91,1.68-8.04,2.53-12.29,2.53-10.14,0-19.68-4.94-25.52-13.22-1.63-2.28-40.18-56.04-92.28-108.07-66.88-66.79-126.09-102.09-171.21-102.09-23.51,0-35.92,7.6-41.5,25.42-7.4,23.64-1.57,60.51,15.58,98.64,17.36,38.6,43.73,72.86,72.75,94.64,22.67-7.03,41.73-7.82,49.15-7.82,25.74,0,67.01,8.55,101.18,27.64,21.31,11.9,38.37,26.79,50.7,44.26,15.13,21.43,22.8,46.09,22.8,73.31,0,37.88-17.98,56.74-33.06,65.88-8.45,5.14-18.32,8.54-29.44,10.15.29,3.86.44,7.74.44,11.6,0,24.02-9.07,44.18-26.22,58.29-15.47,12.72-37.05,19.73-60.78,19.73-44.27,0-88.18-22.79-117.46-60.97-3.35-4.36-4.73-9.97-3.8-15.38.93-5.39,4.09-10.18,8.67-13.16,3.2-2.07,6.89-3.17,10.68-3.17,6.11,0,11.79,2.77,15.58,7.61,21.92,27.97,55.45,46.04,85.41,46.04,7.18,0,14.22-1.01,20.91-2.99,18.39-5.45,27.72-17.56,27.72-36,0-33.68-14.94-66.37-42.07-92.04-26.66-25.23-61.48-39.7-95.52-39.7-30.75,0-56.15,8.79-73.45,25.42-15.46,14.86-23.97,35.98-23.97,59.47,0,43.17,22.62,94.52,59.02,134,20.53,22.26,44.4,39.83,70.92,52.23,29.5,13.77,61.7,20.76,95.71,20.76,58.12,0,107.22-17.09,141.98-49.42,3.61-3.35,8.32-5.2,13.26-5.2,4.56,0,9.01,1.6,12.53,4.5,4.38,3.61,6.98,8.93,7.15,14.6.17,5.65-2.1,11.09-6.23,14.92-42.14,39.19-100.48,59.9-168.7,59.9ZM338.88,446.1c36.86,0,74.43,12.91,105.77,36.34,29.41,21.99,51.48,51.83,62.69,84.57,21.24-2.25,31.18-14.3,31.18-37.51,0-35.47-17.96-63.48-53.37-83.27-27.85-15.56-62.03-22.64-82.01-22.64s-48.11,6.22-71.68,22.66c2.45-.09,4.93-.14,7.41-.14Z"/>
    <path class="cls-2" d="M559.69,245.6c-7.75,0-14.8-4.57-17.95-11.65l-25.26-56.67c-2.14-4.79-2.28-10.13-.4-15.03,1.88-4.9,5.55-8.78,10.35-10.91.03-.01.05-.02.08-.04,2.52-1.11,5.18-1.67,7.92-1.67,7.75,0,14.8,4.57,17.95,11.65l25.25,56.67c2.14,4.79,2.28,10.13.4,15.03s-5.56,8.78-10.35,10.91c-2.54,1.13-5.22,1.7-7.99,1.7h0Z"/>
    <path class="cls-2" d="M626.48,253.43c-2.48,0-4.91-.46-7.22-1.38-10.07-3.98-15.03-15.42-11.05-25.49l22.8-57.7c2.98-7.55,10.16-12.43,18.28-12.43,2.44,0,4.83.45,7.12,1.34.03.01.07.03.1.04,4.88,1.93,8.72,5.64,10.81,10.46,2.09,4.82,2.17,10.16.24,15.04l-22.8,57.7c-2.98,7.55-10.16,12.43-18.28,12.43h0Z"/>
    <path class="cls-2" d="M674.53,295.84c-8.15,0-15.54-5.13-18.4-12.76-3.8-10.14,1.36-21.49,11.5-25.29l58.09-21.79c2.22-.83,4.54-1.25,6.9-1.25,8.14,0,15.54,5.12,18.4,12.75,0,.02.01.03.02.05,1.83,4.9,1.64,10.22-.53,14.99-2.17,4.78-6.07,8.42-10.99,10.27l-58.09,21.79c-2.22.83-4.54,1.25-6.9,1.25h0Z"/>
  </g>
</svg>