<?xml version="1.0" encoding="UTF-8"?>
<svg id="Layer_1" data-name="Layer 1" xmlns="http://www.w3.org/2000/svg" viewBox="0 0 1026.47 1002.78">
  <defs>
    <style>
      .cls-1 {
        fill: #ddaa2a;
      }

      .cls-2 {
        fill: #282e47;
      }

      .cls-3 {
        fill: #ffd958;
      }
    </style>
  </defs>
  <path class="cls-1" d="M614.38,895.79c-36.9,20.86-75.66,30.61-112.11,28.18-40.28-2.68-74.71-19.9-96.93-48.49-6.67-8.58-12.25-18.03-16.72-28.31-10.49-1.63-20.62-4.21-30.21-7.74-30-11.04-53.53-30.42-68.02-56.07-8.18-14.46-13.56-30.94-16.06-48.87-16.98-11.3-31.15-26.51-41.6-45-22.6-39.97-46.17-122.34,49.89-224.83,3.31-3.54,6.67-6.99,10.05-10.35-17.36-11.36-33.31-24.59-47.58-39.54-35.43-37.12-59.42-83.88-67.53-131.65-11.51-67.75,10.7-126.43,57.95-153.14,28.52-16.12,89.11-32.8,174.47,36.64,68.08,55.38,141.75,65.86,213,76,38.99,5.55,75.81,10.79,111.29,22.84,44.33,15.05,78.62,38.53,104.79,71.76,37.37,43.51,61.83,89.31,72.71,136.15,10.56,45.47,7.78,91.31-8.04,132.64-28.08,80.22-82.47,144.97-157.33,187.29,0,0,0,0,0,0-12.75,7.21-26.04,13.74-39.7,19.5-16.25,22.39-36.34,43.1-58.96,60.68-10.8,8.4-22.03,15.9-33.36,22.31Z"/>
  <path class="cls-3" d="M568.87,858.48c-36.9,20.86-75.66,30.61-112.11,28.18-40.28-2.68-74.71-19.9-96.93-48.49-6.67-8.58-12.25-18.03-16.72-28.31-10.49-1.63-20.62-4.21-30.21-7.74-30-11.04-53.53-30.42-68.02-56.07-8.18-14.46-13.56-30.94-16.06-48.87-16.98-11.3-31.15-26.51-41.6-45-22.6-39.97-46.17-122.34,49.89-224.83,3.31-3.54,6.67-6.99,10.05-10.35-17.36-11.36-33.31-24.59-47.58-39.54-35.43-37.12-59.42-83.88-67.53-131.65-11.51-67.75,10.7-126.43,57.95-153.14,28.52-16.12,89.11-32.8,174.47,36.64,68.08,55.38,141.75,65.86,213,76,38.99,5.55,75.81,10.79,111.29,22.84,44.33,15.05,78.62,38.53,104.79,71.76,37.37,43.51,61.83,89.31,72.71,136.15,10.56,45.47,7.78,91.31-8.04,132.64-28.08,80.22-82.47,144.97-157.33,187.29,0,0,0,0,0,0-12.75,7.21-26.04,13.74-39.7,19.5-16.25,22.39-36.34,43.1-58.96,60.68-10.8,8.4-22.03,15.9-33.36,22.31Z"/>
  <path class="cls-2" d="M745.34,339.49c-84.36-108.95-261.05-32.33-420.22-161.8-177.47-144.37-193.26,178.7,44.15,221.39,0,0-188.49,115-127.76,222.42,11.28,19.95,28.68,30.81,49.16,34.62-2.22,17.73-2.02,40.65,8.5,59.25,14.09,24.92,48.92,39.56,93.08,32.41.95,16.9,4.98,36.88,16.83,52.13,25.21,32.44,89.65,37.72,154.89-12.97,23.41-18.2,42.66-39.93,56.28-62.37,54.7-19.66,141.26-67.24,179.43-177.35,2.02-5.82,1.25-11.87-1.54-16.81-2.63-4.66-7.07-8.32-12.66-9.83-10.52-2.84-21.41,2.95-24.99,13.24-19.54,56.27-55.84,100.08-108.12,130.38-3.67,2.13-7.31,4.12-10.9,5.99,7.73-47.53-17.18-87.44-90.1-90.06-4.71-25.13-23.78-46.22-61.52-57.27,3.95-17.62,2.32-35.14-6.8-51.27-9.06-16.02-24.02-27.06-42.13-31.1-4.53-1.01-9.2-1.59-14-1.73-10.75-.32-19.79,8.02-20.64,18.73l-.07.82c-.92,11.66,8.18,21.44,19.87,21.87,9.36.34,16.59,4.15,20.91,11.79,6.35,11.23,3.91,26.13-7.26,44.31-13.32,21.68-37.63,43.88-65.02,59.37-23.62,13.35-47.99,20.88-66.87,20.65-19.35-.24-26.35-8.24-30.27-15.18-7.85-13.88-8.74-28.33-2.82-45.44,5.98-17.29,18.48-36.25,37.16-56.35,35.11-37.82,78.54-64.65,78.98-64.92l.12-.08c32-20.1,22.72-69.02-14.41-76.01h0c-41.23-7.42-75.36-24.91-101.44-51.98-21.26-22.09-35.69-49.37-40.61-76.86-4.88-27.23,1.8-43.67,6.47-46.43l.05-.03c4.85-2.74,25.23.2,57.92,26.8,90.42,73.57,186.6,87.25,263.87,98.24,37.47,5.33,72.86,10.37,100.68,21.34,21.11,8.33,36.79,19.59,49.14,35.56,6.25,8.09,17.56,10.27,26.46,5.23,10.99-6.21,13.92-20.73,6.19-30.7ZM547.75,621.51c27.57.68,46.42,7.73,51.49,20.07,4.42,10.76,1.91,28.37-6.73,47.12-10.92,23.7-30.09,46.98-53.96,65.53-23.1,17.95-47.42,28.24-68.49,28.97-15.43.54-24.73-4.15-28.28-8.71-7.08-9.11-8.7-25.77-8.33-39.03,6.84-2.95,13.8-6.4,20.85-10.38,46.45-26.26,81.21-65.81,93.45-103.58ZM332.63,655.39c52.5-9.76,110.98-49.02,140.3-94.14,21.13,5.2,34.65,13.98,37.43,25.16,2.81,11.29-2.24,28.34-13.52,45.64-14.26,21.86-36.61,42.1-62.93,56.98-25.46,14.39-51.02,21.03-71.98,18.69-15.35-1.71-23.86-7.7-26.71-12.74-5.64-9.98-4.87-26.57-2.6-39.59Z"/>
</svg>