<?xml version="1.0" encoding="UTF-8"?>
<svg id="Layer_1" data-name="Layer 1" xmlns="http://www.w3.org/2000/svg" viewBox="0 0 860.03 749.65">
  <defs>
    <style>
      .cls-1 {
        fill: #ffd958;
      }

      .cls-1, .cls-2, .cls-3 {
        stroke-width: 0px;
      }

      .cls-2 {
        fill: #282e47;
      }

      .cls-3 {
        fill: #ddaa2a;
      }
    </style>
  </defs>
  <path class="cls-3" d="M797.86,355.83c-12.53-18-27.83-34.81-45.38-49.98,5.42-15.32,8.27-31.67,8.27-48.46,0-79.79-64.92-144.71-144.71-144.71-28.41,0-54.93,8.23-77.31,22.42-30.94-45.46-83.09-75.37-142.1-75.37-94.72,0-171.77,77.06-171.77,171.78,0,32.54,9.2,63.73,25.73,90.44-4.52,4.61-8.85,9.35-12.97,14.19l-40.4-37.49c-18.13-16.82-41.59-26.09-66.07-26.09s-48.82,9.43-67.08,26.54c-19.73,18.49-30.6,43.7-30.6,70.98v226.32c0,27.28,10.87,52.48,30.6,70.98,18.27,17.12,42.09,26.55,67.08,26.55s47.94-9.26,66.07-26.09l40.39-37.49c20.55,24.15,46.16,45.57,75.81,63.06,56.99,33.61,124.99,51.38,196.64,51.38,34.35,0,69.12-6.24,100.55-18.04,34.16-12.83,63.47-31.48,87.11-55.44,20.39-20.67,35.58-44.34,45.25-70.22,2.69.26,5.39.4,8.1.4h0c37.11,0,69.99-24.92,79.96-60.62,5.25-18.79,7.91-38.18,7.91-57.62,0-44.72-14.21-88.78-41.09-127.4Z"/>
  <path class="cls-1" d="M776.58,300.96c-12.53-18-27.83-34.81-45.38-49.98,5.42-15.32,8.27-31.67,8.27-48.46,0-79.79-64.92-144.71-144.71-144.71-28.41,0-54.93,8.23-77.31,22.42C486.52,34.77,434.36,4.86,375.35,4.86c-94.72,0-171.77,77.06-171.77,171.78,0,32.54,9.2,63.73,25.73,90.44-4.52,4.61-8.85,9.35-12.97,14.19l-40.4-37.49c-18.13-16.82-41.59-26.09-66.07-26.09s-48.82,9.43-67.08,26.54c-19.73,18.49-30.6,43.7-30.6,70.98v226.32c0,27.28,10.87,52.48,30.6,70.98,18.27,17.12,42.09,26.55,67.08,26.55s47.94-9.26,66.07-26.09l40.39-37.49c20.55,24.15,46.16,45.57,75.81,63.06,56.99,33.61,124.99,51.38,196.64,51.38,34.35,0,69.12-6.24,100.55-18.04,34.16-12.83,63.47-31.48,87.11-55.44,20.39-20.67,35.58-44.34,45.25-70.22,2.69.26,5.39.4,8.1.4h0c37.11,0,69.99-24.92,79.96-60.62,5.25-18.79,7.91-38.18,7.91-57.62,0-44.72-14.21-88.78-41.09-127.4Z"/>
  <path class="cls-2" d="M645.6,267.3c19.19-15.07,31.51-38.49,31.51-64.78,0-45.48-36.87-82.35-82.35-82.35s-82.35,36.87-82.35,82.35c0,9.75,1.7,19.11,4.82,27.79-9.34-.74-18.82-1.12-28.43-1.12-5.95,0-11.85.15-17.7.43,8.71-15.69,13.66-33.76,13.66-52.98,0-60.43-48.98-109.42-109.41-109.42s-109.41,48.99-109.41,109.42c0,41.36,22.94,77.35,56.79,95.94-44.82,26.72-77.84,64.01-92.32,106.82l-96.88-89.91c-22.46-20.84-58.97-4.91-58.97,25.72v226.32c0,30.63,36.51,46.56,58.97,25.72l96.88-89.92c29.2,86.33,133.8,150.22,258.39,150.22,91.88,0,184.35-55.75,183.02-154.13-.16-11.43-9.61-20.28-20.67-20.28-1.06,0-2.14.08-3.22.25-10.1,1.57-17.66,10.28-17.52,20.5.34,24.56-7.29,46.07-22.77,64.15-25.41,29.67-70.95,48.1-118.84,48.1-62.31,0-120.43-17.8-163.66-50.1-39.61-29.61-61.43-67.85-61.43-107.67s21.82-78.06,61.43-107.67c43.23-32.3,101.35-50.09,163.66-50.09s120.43,17.79,163.65,50.09c39.62,29.61,61.44,67.85,61.44,107.67,0,10.07-1.4,20.04-4.12,29.8-.51,1.82-.75,3.65-.75,5.46,0,8.73,5.7,16.81,14.41,19.61,11.14,3.59,23.12-2.74,26.27-14.02,3.68-13.18,5.61-26.85,5.61-40.85,0-66.2-43.21-124.86-109.71-161.07ZM115.98,527.03v-197.32l106.31,98.66-106.31,98.66ZM375.35,244.64c-37.49,0-68-30.51-68-68s30.51-68,68-68,68,30.5,68,68-30.51,68-68,68ZM594.76,243.45c-22.57,0-40.93-18.36-40.93-40.93s18.36-40.93,40.93-40.93,40.93,18.36,40.93,40.93-18.36,40.93-40.93,40.93Z"/>
</svg>