<svg width="17" height="18" viewBox="0 0 17 18" fill="none" xmlns="http://www.w3.org/2000/svg">
<path d="M8.4805 8.94675C7.23917 8.94675 6.18208 8.51033 5.30925 7.6375C4.43642 6.76467 4 5.70758 4 4.46625C4 3.22492 4.43642 2.17025 5.30925 1.30225C6.18208 0.434083 7.23917 0 8.4805 0C9.72183 0 10.7789 0.434083 11.6517 1.30225C12.5246 2.17025 12.961 3.22492 12.961 4.46625C12.961 5.70758 12.5246 6.76467 11.6517 7.6375C10.7789 8.51033 9.72183 8.94675 8.4805 8.94675ZM0 15.2578V14.599C0 13.9475 0.169417 13.3466 0.50825 12.7963C0.846917 12.2459 1.30033 11.8269 1.8685 11.5393C2.93017 11.0131 4.01317 10.6162 5.1175 10.3485C6.22183 10.0807 7.34283 9.94675 8.4805 9.94675C9.637 9.94675 10.7674 10.0783 11.8718 10.3413C12.9761 10.6044 14.0497 10.999 15.0925 11.525C15.6607 11.8127 16.1141 12.2293 16.4527 12.775C16.7916 13.3207 16.961 13.9287 16.961 14.599V15.2578C16.961 15.9961 16.7039 16.6223 16.1897 17.1365C15.6756 17.6507 15.0493 17.9078 14.311 17.9078H2.65C1.91167 17.9078 1.28542 17.6507 0.77125 17.1365C0.257083 16.6223 0 15.9961 0 15.2578Z" fill="#FFD958"/>
</svg>
