<?xml version="1.0" encoding="UTF-8"?>
<svg id="Layer_1" data-name="Layer 1" xmlns="http://www.w3.org/2000/svg" viewBox="0 0 869.64 922.22">
  <defs>
    <style>
      .cls-1 {
        fill: #ffd958;
      }

      .cls-1, .cls-2, .cls-3 {
        stroke-width: 0px;
      }

      .cls-2 {
        fill: #282e47;
      }

      .cls-3 {
        fill: #ddaa2a;
      }
    </style>
  </defs>
  <path class="cls-3" d="M380.44,917.36c-51.14,0-99.86-10.64-144.8-31.64-40.24-18.8-76.28-45.28-107.12-78.72-56.17-60.9-89.7-140-89.7-211.59,0-32.93,7.96-65,23.02-92.74,14.23-26.21,34.96-48.83,60.07-65.58,3.26-4.96,6.75-9.79,10.42-14.46-19.36-26.07-35.79-55.17-47.84-84.8-25.57-62.88-30.33-123.56-13.41-170.88,10.43-29.17,28.83-53.1,53.23-69.22,24.49-16.18,53.94-24.38,87.55-24.38,51.36,0,106.89,20.9,165.29,62.15,8.53-16.94,22.75-30.74,40.42-38.62l.39-.17c10.63-4.67,21.87-7.03,33.43-7.03,24.9,0,48.24,11.29,63.81,29.92,15.18-14.5,35.47-22.75,57.25-22.75,10.49,0,20.75,1.96,30.52,5.81l.61.25c20.36,8.23,36.35,23.85,45.08,43.98,4.55,10.5,6.87,21.53,6.91,32.64,1.56-.09,3.13-.13,4.7-.13,34.28,0,65.5,21.54,77.67,53.6l.08.21c6.85,18.25,7.12,37.82.93,55.96,22.78,8.76,42.73,21.24,59.46,37.24,31.95,30.55,50.28,72.79,50.28,115.89,0,69.61-36.81,133.49-106.44,184.74-15.88,11.68-33.29,22.57-51.83,32.42-8.79,64.87-35.74,122.39-78.19,166.76-57.07,59.63-137.22,91.15-231.78,91.15Z"/>
  <path class="cls-1" d="M359.16,862.49c-51.14,0-99.86-10.64-144.8-31.64-40.24-18.8-76.28-45.28-107.12-78.72-56.17-60.9-89.7-140-89.7-211.59,0-32.93,7.96-65,23.02-92.74,14.23-26.21,34.96-48.83,60.07-65.58,3.26-4.96,6.75-9.79,10.42-14.46-19.36-26.07-35.79-55.17-47.84-84.8-25.57-62.88-30.33-123.56-13.41-170.88,10.43-29.17,28.83-53.1,53.23-69.22,24.49-16.18,53.94-24.38,87.55-24.38,51.36,0,106.89,20.9,165.29,62.15,8.53-16.94,22.75-30.74,40.42-38.62l.39-.17c10.63-4.67,21.87-7.03,33.43-7.03,24.9,0,48.24,11.29,63.81,29.92,15.18-14.5,35.47-22.75,57.25-22.75,10.49,0,20.75,1.96,30.52,5.81l.61.25c20.36,8.23,36.35,23.85,45.08,43.98,4.55,10.5,6.87,21.53,6.91,32.64,1.56-.09,3.13-.13,4.7-.13,34.28,0,65.5,21.54,77.67,53.6l.08.21c6.85,18.25,7.12,37.82.93,55.96,22.78,8.76,42.73,21.24,59.46,37.24,31.95,30.55,50.28,72.79,50.28,115.89,0,69.61-36.81,133.49-106.44,184.74-15.88,11.68-33.29,22.57-51.83,32.42-8.79,64.87-35.74,122.39-78.19,166.76-57.07,59.63-137.22,91.15-231.78,91.15Z"/>
  <g>
    <path class="cls-2" d="M359.16,800.12c-41.95,0-81.79-8.67-118.41-25.78-32.86-15.35-62.36-37.05-87.67-64.49-45.14-48.95-73.18-113.82-73.18-169.31,0-24.15,6.09-47.25,17.62-66.79,11.38-19.29,28.13-35.2,48.54-46.12,10.94-20.09,25.9-37.07,44.51-50.5,2.49-1.8,5.05-3.53,7.67-5.2-70.31-63.72-112.71-174.53-89.72-238.86,8.52-23.83,29.67-52.24,82.05-52.24,33.2,0,70.38,12.82,110.52,38.1,31.54,19.87,65.08,47.49,99.7,82.12,48.27,48.28,85.4,97.12,97.3,113.27,51.28-21.29,97.34-32.08,136.99-32.08s75.44,11.88,98.95,34.36c19.71,18.84,31.01,44.66,31.01,70.82,0,42.7-20.45,82.46-60.78,118.17-31.99,28.33-68.49,46.74-87.4,55.19-2.69,1.2-5.54,1.81-8.46,1.81h0c-8.62,0-16.43-5.42-19.43-13.5-3.79-10.2,1.02-21.68,10.95-26.13,29.02-13.01,123.7-61.25,123.7-135.54,0-18.88-10.35-36.98-27.7-48.41-10.61-7-29.82-15.34-61.14-15.34-35.44,0-78.05,10.55-126.65,31.37-4.12,1.77-8.48,2.66-12.95,2.66-10.68,0-20.74-5.21-26.89-13.94-1.71-2.4-42.34-59.07-97.26-113.9-70.49-70.39-132.89-107.6-180.45-107.6-24.78,0-37.85,8.01-43.74,26.79-7.8,24.91-1.66,63.78,16.42,103.96,18.3,40.69,46.09,76.79,76.67,99.74,23.89-7.41,43.98-8.25,51.8-8.25,27.13,0,70.63,9.01,106.64,29.13,22.46,12.54,40.44,28.24,53.44,46.65,15.94,22.58,24.03,48.58,24.03,77.26,0,39.92-18.95,59.8-34.84,69.44-8.9,5.41-19.31,9-31.02,10.7.31,4.07.47,8.16.47,12.23,0,25.32-9.56,46.57-27.64,61.44-16.3,13.41-39.05,20.79-64.06,20.79-46.66,0-92.94-24.02-123.8-64.26-3.53-4.6-4.99-10.51-4.01-16.21.98-5.68,4.31-10.73,9.14-13.87,3.37-2.19,7.26-3.34,11.26-3.34,6.44,0,12.43,2.92,16.42,8.02,23.1,29.48,58.44,48.52,90.02,48.52,7.57,0,14.98-1.06,22.04-3.15,19.38-5.74,29.21-18.51,29.21-37.94,0-35.5-15.75-69.95-44.34-97-28.1-26.59-64.79-41.84-100.67-41.84-32.41,0-59.18,9.27-77.42,26.8-16.29,15.66-25.27,37.92-25.27,62.68,0,45.5,23.84,99.62,62.21,141.24,21.64,23.46,46.79,41.98,74.75,55.05,31.09,14.52,65.03,21.88,100.88,21.88,61.25,0,113-18.01,149.65-52.09,3.8-3.53,8.77-5.48,13.98-5.48,4.8,0,9.49,1.68,13.2,4.74,4.61,3.8,7.36,9.41,7.54,15.38.18,5.95-2.22,11.68-6.57,15.73-44.41,41.3-105.9,63.13-177.8,63.13ZM224.01,409.64c38.85,0,78.44,13.6,111.48,38.3,31,23.18,54.26,54.63,66.07,89.13,22.38-2.38,32.86-15.07,32.86-39.54,0-37.38-18.92-66.91-56.25-87.76-29.35-16.4-65.38-23.87-86.44-23.87s-50.71,6.56-75.54,23.88c2.58-.1,5.19-.15,7.81-.15Z"/>
    <path class="cls-2" d="M456.74,198.32c-8.17,0-15.59-4.82-18.92-12.28l-26.62-59.72c-2.25-5.05-2.4-10.68-.42-15.84,1.98-5.17,5.85-9.25,10.91-11.5.03-.01.06-.02.08-.04,2.65-1.17,5.46-1.76,8.34-1.76,8.17,0,15.6,4.82,18.92,12.28l26.62,59.73c2.25,5.05,2.4,10.68.42,15.85s-5.86,9.25-10.91,11.5c-2.67,1.19-5.5,1.79-8.42,1.79h0Z"/>
    <path class="cls-2" d="M527.13,206.57c-2.61,0-5.17-.49-7.61-1.45-10.61-4.2-15.84-16.25-11.64-26.87l24.03-60.81c3.15-7.96,10.71-13.1,19.26-13.1,2.57,0,5.1.47,7.5,1.41.04.01.07.03.11.04,5.14,2.03,9.19,5.95,11.39,11.02,2.2,5.08,2.29,10.7.26,15.85l-24.04,60.81c-3.15,7.96-10.71,13.1-19.26,13.1h0Z"/>
    <path class="cls-2" d="M577.78,251.27c-8.59,0-16.38-5.4-19.39-13.45-4.01-10.69,1.43-22.65,12.12-26.65l61.22-22.96c2.34-.88,4.79-1.32,7.27-1.32,8.58,0,16.37,5.4,19.39,13.44,0,.02.01.03.02.05,1.92,5.17,1.73,10.77-.55,15.8-2.29,5.04-6.4,8.88-11.58,10.82l-61.23,22.96c-2.34.88-4.79,1.32-7.27,1.32h0Z"/>
  </g>
</svg>