<?xml version="1.0" encoding="UTF-8"?>
<svg id="Layer_1" data-name="Layer 1" xmlns="http://www.w3.org/2000/svg" viewBox="0 0 651.67 949.55">
  <defs>
    <style>
      .cls-1 {
        fill: #ffd958;
      }

      .cls-1, .cls-2, .cls-3 {
        stroke-width: 0px;
      }

      .cls-2 {
        fill: #282e47;
      }

      .cls-3 {
        fill: #ddaa2a;
      }
    </style>
  </defs>
  <path class="cls-3" d="M625.79,204.68l-.12-.35-.68-1.81c-12.28-31.86-43.33-53.21-77.52-53.21-1.58,0-3.16.06-4.73.15-.05-11.09-2.33-22.17-6.88-32.66-8.82-20.36-25.05-36.06-45.69-44.22l-.7-.27c-9.56-3.68-19.59-5.55-29.83-5.55-21.89,0-42.15,8.4-57.23,22.76-15.55-18.65-38.82-29.93-63.83-29.93-11.32,0-22.33,2.26-32.74,6.73l-.29.12-1.47.65-.29.14c-19.79,9.12-34.95,25.31-42.77,45.7-7.94,20.72-7.34,43.29,1.69,63.55l10.04,22.52h-87.49c-84.56,0-153.36,68.8-153.36,153.36v438.95c0,84.56,68.8,153.35,153.36,153.35h177.62c84.56,0,153.35-68.79,153.35-153.35v-110.28c0-22.18-8.64-43.04-24.33-58.74-2.71-2.71-5.57-5.2-8.56-7.48,2.18-4.59,3.95-9.44,5.28-14.49,10.32-39.37,27.63-118.44,27.63-205.74v-61.78s60.39-22.65,60.39-22.65c20.78-7.79,37.29-23.21,46.47-43.41,8.96-19.72,9.9-41.71,2.69-62.08Z"/>
  <path class="cls-1" d="M604.51,149.81l-.12-.35-.68-1.81c-12.28-31.86-43.33-53.21-77.52-53.21-1.58,0-3.16.06-4.73.15-.05-11.09-2.33-22.17-6.88-32.66-8.82-20.36-25.05-36.06-45.69-44.22l-.7-.27c-9.56-3.68-19.59-5.55-29.83-5.55-21.89,0-42.15,8.4-57.23,22.76-15.55-18.65-38.82-29.93-63.83-29.93-11.32,0-22.33,2.26-32.74,6.73l-.29.12-1.47.65-.29.14c-19.79,9.12-34.95,25.31-42.77,45.7-7.94,20.72-7.34,43.29,1.69,63.55l10.04,22.52h-87.49c-84.56,0-153.36,68.8-153.36,153.36v438.95c0,84.56,68.8,153.35,153.36,153.35h177.62c84.56,0,153.35-68.79,153.35-153.35v-110.28c0-22.18-8.64-43.04-24.33-58.74-2.71-2.71-5.57-5.2-8.56-7.48,2.18-4.59,3.95-9.44,5.28-14.49,10.32-39.37,27.63-118.44,27.63-205.74v-61.78s60.39-22.65,60.39-22.65c20.78-7.79,37.29-23.21,46.47-43.41,8.96-19.72,9.9-41.71,2.69-62.08Z"/>
  <g>
    <path class="cls-2" d="M426.53,611.54c3.75,3.75,6.07,8.93,6.07,14.64v110.28c0,50.25-40.74,90.99-90.99,90.99h-177.62c-50.26,0-91-40.74-91-90.99v-438.95c0-50.26,40.74-91,91-91h177.62c50.25,0,90.99,40.74,90.99,91v42.22h.01c0,81.05-16.45,155.06-25.59,189.93-3,11.44-14.99,18.03-26.27,14.47-8.8-2.77-14.48-10.9-14.48-19.73,0-1.74.22-3.5.68-5.26,8.51-32.57,24.24-103.04,24.24-179.41v-42.22c0-27.38-22.2-49.58-49.58-49.58h-177.62c-27.39,0-49.58,22.2-49.58,49.58v438.95c0,27.33,22.24,49.57,49.58,49.57h177.62c27.38,0,49.58-22.2,49.58-49.58v-110.27c0-11.43,9.27-20.7,20.7-20.7,5.72,0,10.9,2.32,14.64,6.06Z"/>
    <path class="cls-2" d="M186.25,723.9c0-11.42,9.29-20.71,20.71-20.71h91.66c11.42,0,20.71,9.29,20.71,20.71s-9.29,20.71-20.71,20.71h-91.66c-11.42,0-20.71-9.29-20.71-20.71Z"/>
    <path class="cls-2" d="M343.94,168.24c-8.17,0-15.59-4.82-18.92-12.28l-26.62-59.72c-2.25-5.05-2.4-10.68-.42-15.84,1.98-5.17,5.85-9.25,10.91-11.5.03-.01.06-.02.08-.04,2.65-1.17,5.46-1.76,8.34-1.76,8.17,0,15.6,4.82,18.92,12.28l26.62,59.73c2.25,5.05,2.4,10.68.42,15.85s-5.86,9.25-10.91,11.5c-2.67,1.19-5.5,1.79-8.42,1.79h0Z"/>
    <path class="cls-2" d="M414.33,176.49c-2.61,0-5.17-.49-7.61-1.45-10.61-4.2-15.84-16.25-11.64-26.87l24.03-60.81c3.15-7.96,10.71-13.1,19.26-13.1,2.57,0,5.1.47,7.5,1.41.04.01.07.03.11.04,5.14,2.03,9.19,5.95,11.39,11.02,2.2,5.08,2.29,10.7.26,15.85l-24.04,60.81c-3.15,7.96-10.71,13.1-19.26,13.1h0Z"/>
    <path class="cls-2" d="M464.98,221.18c-8.59,0-16.38-5.4-19.39-13.45-4.01-10.69,1.43-22.65,12.12-26.65l61.22-22.96c2.34-.88,4.79-1.32,7.27-1.32,8.58,0,16.37,5.4,19.39,13.44,0,.02.01.03.02.05,1.92,5.17,1.73,10.77-.55,15.8-2.29,5.04-6.4,8.88-11.58,10.82l-61.23,22.96c-2.34.88-4.79,1.32-7.27,1.32h0Z"/>
  </g>
</svg>