<?xml version="1.0" encoding="UTF-8"?>
<svg id="Layer_1" data-name="Layer 1" xmlns="http://www.w3.org/2000/svg" xmlns:xlink="http://www.w3.org/1999/xlink" viewBox="0 0 686.37 861.57">
  <defs>
    <style>
      .cls-1 {
        fill: #ffd958;
      }

      .cls-1, .cls-2, .cls-3 {
        stroke-width: 0px;
      }

      .cls-2 {
        fill: url(#Nepojmenovaný_přechod_6);
      }

      .cls-3 {
        fill: #ddaa2a;
      }
    </style>
    <linearGradient id="Nepojmenovaný_přechod_6" data-name="Nepojmenovaný přechod 6" x1="38.88" y1="158.78" x2="475.85" y2="595.75" gradientUnits="userSpaceOnUse">
      <stop offset="0" stop-color="#3d445b"/>
      <stop offset="1" stop-color="#282e47"/>
    </linearGradient>
  </defs>
  <path class="cls-3" d="M672.19,409.85c-5.06-21.3-17.92-39.06-35.38-50.42,14.55-19.44,20.15-44.69,14.37-69.02-2.68-11.29-7.6-21.7-14.61-30.96-.06-.08-.29-.38-.29-.38-13.47-17.57-32.97-28.86-54.93-31.8-3.65-.49-7.37-.74-11.04-.74-18.1,0-36,6.06-50.4,17.07l-2.38,1.82v-29.49c0-84.56-68.79-153.36-153.35-153.36h-177.62c-84.56,0-153.36,68.8-153.36,153.36v438.95c0,84.56,68.8,153.35,153.36,153.35h177.62c84.56,0,153.35-68.79,153.35-153.35v-39.42c4.58.77,9.23,1.19,13.86,1.19h0c16.48,0,32.44-4.86,46.16-14.04.12-.08.23-.16.35-.24,28.44-19.25,42.21-54.58,34.26-88.02-.36-1.53-.79-3.05-1.23-4.55,10.83-2.61,21.04-7.41,30.18-14.24,17.77-13.29,29.3-32.71,32.46-54.68.02-.15.07-.5.08-.54,1.4-10.21.91-20.46-1.47-30.5Z"/>
  <path class="cls-1" d="M650.91,354.98c-5.06-21.3-17.92-39.06-35.38-50.42,14.55-19.44,20.15-44.69,14.37-69.02-2.68-11.29-7.6-21.7-14.61-30.96-.06-.08-.29-.38-.29-.38-13.47-17.57-32.97-28.86-54.93-31.8-3.65-.49-7.37-.74-11.04-.74-18.1,0-36,6.06-50.4,17.07l-2.38,1.82v-29.49c0-84.56-68.79-153.36-153.35-153.36h-177.62C80.72,7.71,11.93,76.51,11.93,161.07v438.95c0,84.56,68.8,153.35,153.36,153.35h177.62c84.56,0,153.35-68.79,153.35-153.35v-39.42c4.58.77,9.23,1.19,13.86,1.19h0c16.48,0,32.44-4.86,46.16-14.04.12-.08.23-.16.35-.24,28.44-19.25,42.21-54.58,34.26-88.02-.36-1.53-.79-3.05-1.23-4.55,10.83-2.61,21.04-7.41,30.18-14.24,17.77-13.29,29.3-32.71,32.46-54.68.02-.15.07-.5.08-.54,1.4-10.21.91-20.46-1.47-30.5Z"/>
  <path class="cls-2" d="M392.49,203.29v-42.22c0-27.38-22.2-49.58-49.58-49.58h-177.62c-27.39,0-49.58,22.2-49.58,49.58v438.95c0,27.33,22.24,49.57,49.58,49.57h177.62c27.38,0,49.58-22.2,49.58-49.58v-110.27c0-11.43,9.27-20.7,20.7-20.7,5.72,0,10.9,2.32,14.64,6.06,3.75,3.75,6.07,8.93,6.07,14.64v110.28c0,50.25-40.74,90.99-90.99,90.99h-177.62c-50.26,0-91-40.74-91-90.99V161.07c0-50.26,40.74-91,91-91h177.62c50.25,0,90.99,40.74,90.99,91v42.22h.01c0,81.05-16.45,155.06-25.59,189.93-3,11.44-14.99,18.03-26.27,14.47-8.8-2.77-14.48-10.9-14.48-19.73,0-1.74.22-3.5.68-5.26,8.51-32.57,24.24-103.04,24.24-179.41ZM208.26,566.75c-11.42,0-20.71,9.29-20.71,20.71s9.29,20.71,20.71,20.71h91.66c11.42,0,20.71-9.29,20.71-20.71s-9.29-20.71-20.71-20.71h-91.66ZM476.97,299.24c.67,2.83,1.92,5.45,3.69,7.77,3.36,4.4,8.23,7.22,13.71,7.96,5.48.73,10.92-.71,15.32-4.07l51.96-39.7c6.49-4.96,9.46-13.3,7.58-21.25-.67-2.81-1.89-5.4-3.64-7.71-.02-.02-.04-.05-.06-.07-3.36-4.4-8.23-7.22-13.71-7.95-5.48-.73-10.92.71-15.32,4.07l-51.95,39.71c-6.49,4.96-9.46,13.3-7.57,21.25h0ZM590.23,369.4c-1.98-8.32-8.73-14.49-17.2-15.71l-64.72-9.33c-11.3-1.63-21.82,6.24-23.45,17.54-.37,2.6-.26,5.2.35,7.74,1.98,8.32,8.73,14.49,17.2,15.71l64.72,9.33c5.48.79,10.93-.6,15.36-3.91,4.43-3.31,7.3-8.15,8.09-13.63,0-.04.01-.08.02-.11.36-2.56.23-5.12-.36-7.63ZM527.26,467.16l-36.49-54.26c-6.37-9.47-19.26-12-28.73-5.63-7.13,4.79-10.58,13.62-8.6,21.97h0c.57,2.42,1.57,4.69,2.97,6.77l36.49,54.26c3.09,4.59,7.78,7.7,13.2,8.77,5.41,1.06,10.91-.05,15.5-3.11.01,0,.03-.02.04-.03,7.12-4.79,10.57-13.62,8.59-21.97-.57-2.42-1.57-4.7-2.97-6.77Z"/>
</svg>