<svg width="11" height="20" viewBox="0 0 11 20" fill="none" xmlns="http://www.w3.org/2000/svg">
<path d="M3.42169 10.2032L10.5454 17.3273C10.8521 17.6338 11.0036 18.0026 10.9999 18.4337C10.9963 18.8649 10.8412 19.2337 10.5347 19.5402C10.2282 19.8467 9.85702 20 9.42119 20C8.98518 20 8.61393 19.8467 8.30743 19.5402L0.844434 12.0805C0.578435 11.8145 0.381351 11.5188 0.253184 11.1935C0.124851 10.8682 0.060686 10.5381 0.060686 10.2032C0.060686 9.86842 0.124851 9.53833 0.253184 9.213C0.381351 8.88767 0.578435 8.592 0.844435 8.326L8.31844 0.852251C8.62494 0.545584 8.99194 0.396416 9.41944 0.404749C9.84694 0.413084 10.2139 0.570583 10.5204 0.877251C10.8271 1.18375 10.9804 1.55492 10.9804 1.99075C10.9804 2.42658 10.8271 2.79775 10.5204 3.10425L3.42169 10.2032Z" fill="#262E49"/>
</svg>
